%TF.GenerationSoftware,KiCad,Pcbnew,9.0.0*%
%TF.CreationDate,2025-03-27T21:27:03+00:00*%
%TF.ProjectId,MiniEconetModule,4d696e69-4563-46f6-9e65-744d6f64756c,02b*%
%TF.SameCoordinates,Original*%
%TF.FileFunction,Paste,Top*%
%TF.FilePolarity,Positive*%
%FSLAX46Y46*%
G04 Gerber Fmt 4.6, Leading zero omitted, Abs format (unit mm)*
G04 Created by KiCad (PCBNEW 9.0.0) date 2025-03-27 21:27:03*
%MOMM*%
%LPD*%
G01*
G04 APERTURE LIST*
G04 Aperture macros list*
%AMRoundRect*
0 Rectangle with rounded corners*
0 $1 Rounding radius*
0 $2 $3 $4 $5 $6 $7 $8 $9 X,Y pos of 4 corners*
0 Add a 4 corners polygon primitive as box body*
4,1,4,$2,$3,$4,$5,$6,$7,$8,$9,$2,$3,0*
0 Add four circle primitives for the rounded corners*
1,1,$1+$1,$2,$3*
1,1,$1+$1,$4,$5*
1,1,$1+$1,$6,$7*
1,1,$1+$1,$8,$9*
0 Add four rect primitives between the rounded corners*
20,1,$1+$1,$2,$3,$4,$5,0*
20,1,$1+$1,$4,$5,$6,$7,0*
20,1,$1+$1,$6,$7,$8,$9,0*
20,1,$1+$1,$8,$9,$2,$3,0*%
G04 Aperture macros list end*
%ADD10RoundRect,0.200000X-0.275000X0.200000X-0.275000X-0.200000X0.275000X-0.200000X0.275000X0.200000X0*%
%ADD11RoundRect,0.200000X0.275000X-0.200000X0.275000X0.200000X-0.275000X0.200000X-0.275000X-0.200000X0*%
%ADD12RoundRect,0.140000X-0.170000X0.140000X-0.170000X-0.140000X0.170000X-0.140000X0.170000X0.140000X0*%
%ADD13RoundRect,0.150000X0.150000X-0.825000X0.150000X0.825000X-0.150000X0.825000X-0.150000X-0.825000X0*%
%ADD14RoundRect,0.225000X-0.250000X0.225000X-0.250000X-0.225000X0.250000X-0.225000X0.250000X0.225000X0*%
%ADD15RoundRect,0.250000X0.475000X-0.250000X0.475000X0.250000X-0.475000X0.250000X-0.475000X-0.250000X0*%
%ADD16RoundRect,0.250000X-0.475000X0.250000X-0.475000X-0.250000X0.475000X-0.250000X0.475000X0.250000X0*%
%ADD17RoundRect,0.225000X0.250000X-0.225000X0.250000X0.225000X-0.250000X0.225000X-0.250000X-0.225000X0*%
%ADD18RoundRect,0.218750X-0.256250X0.218750X-0.256250X-0.218750X0.256250X-0.218750X0.256250X0.218750X0*%
%ADD19RoundRect,0.140000X0.170000X-0.140000X0.170000X0.140000X-0.170000X0.140000X-0.170000X-0.140000X0*%
G04 APERTURE END LIST*
D10*
X136719000Y-63912000D03*
X136719000Y-65562000D03*
X131639000Y-67214000D03*
X131639000Y-68864000D03*
D11*
X128083000Y-68864000D03*
X128083000Y-67214000D03*
X131639000Y-72166000D03*
X131639000Y-70516000D03*
D10*
X131639000Y-63912000D03*
X131639000Y-65562000D03*
X134179000Y-63912000D03*
X134179000Y-65562000D03*
X139259000Y-63912000D03*
X139259000Y-65562000D03*
X141799000Y-63912000D03*
X141799000Y-65562000D03*
D11*
X139259000Y-68864000D03*
X139259000Y-67214000D03*
X136719000Y-68864000D03*
X136719000Y-67214000D03*
D12*
X109414000Y-78989000D03*
X109414000Y-79949000D03*
X121098000Y-78989000D03*
X121098000Y-79949000D03*
D11*
X134179000Y-72166000D03*
X134179000Y-70516000D03*
X134179000Y-68864000D03*
X134179000Y-67214000D03*
D13*
X122495000Y-79404000D03*
X123765000Y-79404000D03*
X125035000Y-79404000D03*
X126305000Y-79404000D03*
X127575000Y-79404000D03*
X128845000Y-79404000D03*
X130115000Y-79404000D03*
X130115000Y-74454000D03*
X128845000Y-74454000D03*
X127575000Y-74454000D03*
X126305000Y-74454000D03*
X125035000Y-74454000D03*
X123765000Y-74454000D03*
X122495000Y-74454000D03*
D12*
X109414000Y-71115000D03*
X109414000Y-72075000D03*
D10*
X125543000Y-70516000D03*
X125543000Y-72166000D03*
X123003000Y-70516000D03*
X123003000Y-72166000D03*
D13*
X134179000Y-79404000D03*
X135449000Y-79404000D03*
X136719000Y-79404000D03*
X137989000Y-79404000D03*
X139259000Y-79404000D03*
X140529000Y-79404000D03*
X141799000Y-79404000D03*
X141799000Y-74454000D03*
X140529000Y-74454000D03*
X139259000Y-74454000D03*
X137989000Y-74454000D03*
X136719000Y-74454000D03*
X135449000Y-74454000D03*
X134179000Y-74454000D03*
D10*
X136719000Y-70516000D03*
X136719000Y-72166000D03*
D14*
X144085000Y-74376000D03*
X144085000Y-75926000D03*
D11*
X139259000Y-72166000D03*
X139259000Y-70516000D03*
D12*
X146133000Y-98519000D03*
X146133000Y-99479000D03*
D11*
X120844000Y-75976000D03*
X120844000Y-74326000D03*
X128083000Y-65562000D03*
X128083000Y-63912000D03*
D13*
X110811000Y-71530000D03*
X112081000Y-71530000D03*
X113351000Y-71530000D03*
X114621000Y-71530000D03*
X115891000Y-71530000D03*
X117161000Y-71530000D03*
X118431000Y-71530000D03*
X119701000Y-71530000D03*
X119701000Y-66580000D03*
X118431000Y-66580000D03*
X117161000Y-66580000D03*
X115891000Y-66580000D03*
X114621000Y-66580000D03*
X113351000Y-66580000D03*
X112081000Y-66580000D03*
X110811000Y-66580000D03*
D10*
X128083000Y-70516000D03*
X128083000Y-72166000D03*
D11*
X125543000Y-68864000D03*
X125543000Y-67214000D03*
D15*
X111446000Y-64163000D03*
X111446000Y-62263000D03*
D16*
X117034000Y-62263000D03*
X117034000Y-64163000D03*
D11*
X123003000Y-68864000D03*
X123003000Y-67214000D03*
X125543000Y-65562000D03*
X125543000Y-63912000D03*
D14*
X132528000Y-74376000D03*
X132528000Y-75926000D03*
D10*
X141799000Y-70516000D03*
X141799000Y-72166000D03*
D12*
X132782000Y-78989000D03*
X132782000Y-79949000D03*
D11*
X141799000Y-68864000D03*
X141799000Y-67214000D03*
D15*
X114240000Y-64163000D03*
X114240000Y-62263000D03*
D10*
X146752000Y-70516000D03*
X146752000Y-72166000D03*
X123003000Y-63912000D03*
X123003000Y-65562000D03*
X146752000Y-63912000D03*
X146752000Y-65562000D03*
D11*
X146752000Y-68864000D03*
X146752000Y-67214000D03*
D17*
X148302000Y-99774000D03*
X148302000Y-98224000D03*
D18*
X149292000Y-67251500D03*
X149292000Y-68826500D03*
X149292000Y-63949500D03*
X149292000Y-65524500D03*
D13*
X110811000Y-79404000D03*
X112081000Y-79404000D03*
X113351000Y-79404000D03*
X114621000Y-79404000D03*
X115891000Y-79404000D03*
X117161000Y-79404000D03*
X118431000Y-79404000D03*
X118431000Y-74454000D03*
X117161000Y-74454000D03*
X115891000Y-74454000D03*
X114621000Y-74454000D03*
X113351000Y-74454000D03*
X112081000Y-74454000D03*
X110811000Y-74454000D03*
D18*
X119701000Y-62425500D03*
X119701000Y-64000500D03*
X149292000Y-70553500D03*
X149292000Y-72128500D03*
D13*
X145736000Y-79404000D03*
X147006000Y-79404000D03*
X148276000Y-79404000D03*
X149546000Y-79404000D03*
X149546000Y-74454000D03*
X148276000Y-74454000D03*
X147006000Y-74454000D03*
X145736000Y-74454000D03*
D19*
X144339000Y-79949000D03*
X144339000Y-78989000D03*
M02*
