%TF.GenerationSoftware,KiCad,Pcbnew,9.0.0*%
%TF.CreationDate,2025-03-27T21:27:03+00:00*%
%TF.ProjectId,MiniEconetModule,4d696e69-4563-46f6-9e65-744d6f64756c,02b*%
%TF.SameCoordinates,Original*%
%TF.FileFunction,Copper,L4,Bot*%
%TF.FilePolarity,Positive*%
%FSLAX46Y46*%
G04 Gerber Fmt 4.6, Leading zero omitted, Abs format (unit mm)*
G04 Created by KiCad (PCBNEW 9.0.0) date 2025-03-27 21:27:03*
%MOMM*%
%LPD*%
G01*
G04 APERTURE LIST*
G04 Aperture macros list*
%AMRoundRect*
0 Rectangle with rounded corners*
0 $1 Rounding radius*
0 $2 $3 $4 $5 $6 $7 $8 $9 X,Y pos of 4 corners*
0 Add a 4 corners polygon primitive as box body*
4,1,4,$2,$3,$4,$5,$6,$7,$8,$9,$2,$3,0*
0 Add four circle primitives for the rounded corners*
1,1,$1+$1,$2,$3*
1,1,$1+$1,$4,$5*
1,1,$1+$1,$6,$7*
1,1,$1+$1,$8,$9*
0 Add four rect primitives between the rounded corners*
20,1,$1+$1,$2,$3,$4,$5,0*
20,1,$1+$1,$4,$5,$6,$7,0*
20,1,$1+$1,$6,$7,$8,$9,0*
20,1,$1+$1,$8,$9,$2,$3,0*%
G04 Aperture macros list end*
%TA.AperFunction,ComponentPad*%
%ADD10RoundRect,0.250000X0.550000X-0.550000X0.550000X0.550000X-0.550000X0.550000X-0.550000X-0.550000X0*%
%TD*%
%TA.AperFunction,ComponentPad*%
%ADD11C,1.600000*%
%TD*%
%TA.AperFunction,ComponentPad*%
%ADD12R,1.700000X1.700000*%
%TD*%
%TA.AperFunction,ComponentPad*%
%ADD13O,1.700000X1.700000*%
%TD*%
%TA.AperFunction,ViaPad*%
%ADD14C,0.800000*%
%TD*%
%TA.AperFunction,Conductor*%
%ADD15C,0.200000*%
%TD*%
%TA.AperFunction,Conductor*%
%ADD16C,0.250000*%
%TD*%
G04 APERTURE END LIST*
D10*
X110075000Y-100805000D03*
D11*
X112615000Y-100805000D03*
X115155000Y-100805000D03*
X117695000Y-100805000D03*
X120235000Y-100805000D03*
X122775000Y-100805000D03*
X125315000Y-100805000D03*
X127855000Y-100805000D03*
X130395000Y-100805000D03*
X132935000Y-100805000D03*
X135475000Y-100805000D03*
X138015000Y-100805000D03*
X140555000Y-100805000D03*
X143095000Y-100805000D03*
X143095000Y-85565000D03*
X140555000Y-85565000D03*
X138015000Y-85565000D03*
X135475000Y-85565000D03*
X132935000Y-85565000D03*
X130395000Y-85565000D03*
X127855000Y-85565000D03*
X125315000Y-85565000D03*
X122775000Y-85565000D03*
X120235000Y-85565000D03*
X117695000Y-85565000D03*
X115155000Y-85565000D03*
X112615000Y-85565000D03*
X110075000Y-85565000D03*
D12*
X108805000Y-103345000D03*
D13*
X111345000Y-103345000D03*
X113885000Y-103345000D03*
X116425000Y-103345000D03*
X118965000Y-103345000D03*
X121505000Y-103345000D03*
X124045000Y-103345000D03*
X126585000Y-103345000D03*
X129125000Y-103345000D03*
X131665000Y-103345000D03*
X134205000Y-103345000D03*
X136745000Y-103345000D03*
X139285000Y-103345000D03*
X141825000Y-103345000D03*
X144365000Y-103345000D03*
X146905000Y-103345000D03*
X149445000Y-103345000D03*
D12*
X134205000Y-60165000D03*
D13*
X136745000Y-60165000D03*
X139285000Y-60165000D03*
X141825000Y-60165000D03*
X144365000Y-60165000D03*
D14*
X137989000Y-68039000D03*
X136211000Y-80866000D03*
X132782000Y-80866000D03*
X128210000Y-80866000D03*
X124400000Y-80866000D03*
X120463000Y-72992000D03*
X120971000Y-80866000D03*
X116771000Y-69891989D03*
X134687000Y-62451000D03*
X121479000Y-66642000D03*
X113303000Y-68293000D03*
X142079000Y-76421000D03*
X128035000Y-62705000D03*
X109313000Y-73246000D03*
X129734000Y-65880000D03*
X140021000Y-80866000D03*
X117842318Y-80866000D03*
X138015000Y-98646000D03*
X147640675Y-73053711D03*
X111091000Y-76294000D03*
X147576000Y-76012130D03*
X147638000Y-77310000D03*
X126305000Y-76167000D03*
X120082000Y-78453000D03*
X131893000Y-78453000D03*
X112057000Y-69870001D03*
X138370000Y-76421000D03*
X126813000Y-63924200D03*
X144339000Y-80866000D03*
X133290000Y-73119000D03*
X124273000Y-69690000D03*
X117923000Y-68928000D03*
X119828000Y-74389000D03*
X130877000Y-76929000D03*
X125035000Y-76929000D03*
X115980500Y-77564000D03*
X143450000Y-70452000D03*
X137989000Y-69690000D03*
X112615000Y-90645000D03*
X110454063Y-81020992D03*
X138015000Y-96995000D03*
X148022000Y-66642000D03*
X115155000Y-96995000D03*
X148567000Y-83025000D03*
X142815000Y-82898000D03*
X120235000Y-90645000D03*
X122775000Y-91915000D03*
X148595000Y-84168000D03*
X148022000Y-63340000D03*
X124273000Y-71341000D03*
X113732000Y-80993000D03*
X115256000Y-75913000D03*
X147649347Y-80975347D03*
X121759000Y-72865000D03*
X113885000Y-95725000D03*
X130395000Y-95725000D03*
X132935000Y-93185000D03*
X118965000Y-93185000D03*
X111345000Y-98265000D03*
X116425000Y-94455000D03*
X116425000Y-84295000D03*
X115891000Y-68420000D03*
X148022000Y-69817000D03*
D15*
X139031000Y-62451000D02*
X144720000Y-62451000D01*
X145609000Y-63340000D02*
X145609000Y-75659000D01*
X145609000Y-75659000D02*
X145990000Y-76040000D01*
X136745000Y-60165000D02*
X139031000Y-62451000D01*
X147548130Y-76040000D02*
X147576000Y-76012130D01*
X145990000Y-76040000D02*
X147548130Y-76040000D01*
X144720000Y-62451000D02*
X145609000Y-63340000D01*
X145209000Y-63505686D02*
X145209000Y-75824686D01*
X145209000Y-75824686D02*
X145824314Y-76440000D01*
X134205000Y-60165000D02*
X135355000Y-61315000D01*
X147638000Y-77307000D02*
X147638000Y-77310000D01*
X138757346Y-62851000D02*
X144554314Y-62851000D01*
X135355000Y-61315000D02*
X137221346Y-61315000D01*
X137221346Y-61315000D02*
X138757346Y-62851000D01*
X144554314Y-62851000D02*
X145209000Y-63505686D01*
X146771000Y-76440000D02*
X147638000Y-77307000D01*
X145824314Y-76440000D02*
X146771000Y-76440000D01*
D16*
X115980500Y-77564000D02*
X116615500Y-76929000D01*
X116615500Y-76929000D02*
X120082000Y-76929000D01*
X119828000Y-76675000D02*
X120082000Y-76929000D01*
X119828000Y-74389000D02*
X119828000Y-76675000D01*
X130877000Y-76929000D02*
X125162000Y-76929000D01*
X120082000Y-76929000D02*
X125162000Y-76929000D01*
X143450000Y-70452000D02*
X142688000Y-69690000D01*
X137989000Y-69690000D02*
X142688000Y-69690000D01*
X112615000Y-88105000D02*
X112615000Y-90645000D01*
X111345000Y-86835000D02*
X112615000Y-88105000D01*
X110454063Y-81020992D02*
X111345000Y-81911929D01*
X111345000Y-81911929D02*
X111345000Y-86835000D01*
X148842000Y-82750000D02*
X148842000Y-67462000D01*
X115155000Y-96995000D02*
X138015000Y-96995000D01*
X148567000Y-83025000D02*
X148842000Y-82750000D01*
X148842000Y-67462000D02*
X148022000Y-66642000D01*
X145127000Y-83807500D02*
X145127000Y-89756000D01*
X144238000Y-90645000D02*
X145127000Y-89756000D01*
X120235000Y-90645000D02*
X144238000Y-90645000D01*
X142815000Y-82898000D02*
X144217500Y-82898000D01*
X144217500Y-82898000D02*
X145127000Y-83807500D01*
X117695000Y-100805000D02*
X120235000Y-100805000D01*
X149292000Y-83471000D02*
X148595000Y-84168000D01*
X148595000Y-91088000D02*
X147768000Y-91915000D01*
X122775000Y-91915000D02*
X147768000Y-91915000D01*
X148595000Y-84168000D02*
X148595000Y-91088000D01*
X149292000Y-83471000D02*
X149292000Y-64610000D01*
X149292000Y-64610000D02*
X148022000Y-63340000D01*
X114044000Y-80681000D02*
X113732000Y-80993000D01*
X123548489Y-70616489D02*
X114990511Y-70616489D01*
X124273000Y-71341000D02*
X123548489Y-70616489D01*
X114990511Y-70616489D02*
X114044000Y-71563000D01*
X108805000Y-100015380D02*
X109285380Y-99535000D01*
X124045000Y-99535000D02*
X125315000Y-100805000D01*
X109285380Y-99535000D02*
X124045000Y-99535000D01*
X108805000Y-103345000D02*
X108805000Y-100015380D01*
X114044000Y-71563000D02*
X114044000Y-80681000D01*
X136745000Y-100171396D02*
X136108604Y-99535000D01*
X129125000Y-99535000D02*
X127855000Y-100805000D01*
X136745000Y-101313000D02*
X136745000Y-100171396D01*
X136108604Y-99535000D02*
X129125000Y-99535000D01*
X137507000Y-102075000D02*
X136745000Y-101313000D01*
X144365000Y-103345000D02*
X143095000Y-102075000D01*
X143095000Y-102075000D02*
X137507000Y-102075000D01*
X115854000Y-81591000D02*
X147033694Y-81591000D01*
X114970000Y-80707000D02*
X115854000Y-81591000D01*
X115256000Y-75913000D02*
X114970000Y-76199000D01*
X114970000Y-76199000D02*
X114970000Y-80707000D01*
X147033694Y-81591000D02*
X147649347Y-80975347D01*
X114494000Y-84041000D02*
X113885000Y-84650000D01*
X113885000Y-95725000D02*
X130395000Y-95725000D01*
X114494000Y-73029000D02*
X114494000Y-84041000D01*
X121759000Y-72865000D02*
X121161000Y-72267000D01*
X113885000Y-84650000D02*
X113885000Y-95725000D01*
X121161000Y-72267000D02*
X115256000Y-72267000D01*
X115256000Y-72267000D02*
X114494000Y-73029000D01*
X118965000Y-93185000D02*
X132935000Y-93185000D01*
X122775000Y-102075000D02*
X134205000Y-102075000D01*
X121505000Y-103345000D02*
X122775000Y-102075000D01*
X134205000Y-102075000D02*
X135475000Y-100805000D01*
X111345000Y-98265000D02*
X135475000Y-98265000D01*
X138015000Y-100805000D02*
X135475000Y-98265000D01*
X116425000Y-94455000D02*
X139285000Y-94455000D01*
X139285000Y-94455000D02*
X140555000Y-95725000D01*
X140555000Y-95725000D02*
X140555000Y-100805000D01*
X148392000Y-81258000D02*
X148392000Y-70187000D01*
X116425000Y-84295000D02*
X116425000Y-82606000D01*
X116425000Y-82606000D02*
X116990000Y-82041000D01*
X116990000Y-82041000D02*
X147609000Y-82041000D01*
X148392000Y-70187000D02*
X148022000Y-69817000D01*
X112615000Y-71696000D02*
X112615000Y-85565000D01*
X147609000Y-82041000D02*
X148392000Y-81258000D01*
X115891000Y-68420000D02*
X112615000Y-71696000D01*
%TA.AperFunction,Conductor*%
G36*
X111963762Y-99879407D02*
G01*
X111999726Y-99928907D01*
X111999726Y-99990093D01*
X111975575Y-100029504D01*
X111837864Y-100167214D01*
X111837861Y-100167218D01*
X111728367Y-100331086D01*
X111652949Y-100513163D01*
X111652949Y-100513165D01*
X111614500Y-100706456D01*
X111614500Y-100903543D01*
X111652949Y-101096834D01*
X111652949Y-101096836D01*
X111728367Y-101278913D01*
X111737126Y-101292022D01*
X111837861Y-101442782D01*
X111977218Y-101582139D01*
X112141086Y-101691632D01*
X112323165Y-101767051D01*
X112516459Y-101805500D01*
X112516460Y-101805500D01*
X112713540Y-101805500D01*
X112713541Y-101805500D01*
X112906835Y-101767051D01*
X113088914Y-101691632D01*
X113252782Y-101582139D01*
X113392139Y-101442782D01*
X113501632Y-101278914D01*
X113577051Y-101096835D01*
X113615500Y-100903541D01*
X113615500Y-100706459D01*
X113577051Y-100513165D01*
X113501632Y-100331086D01*
X113392139Y-100167218D01*
X113254425Y-100029504D01*
X113226648Y-99974987D01*
X113236219Y-99914555D01*
X113279484Y-99871290D01*
X113324429Y-99860500D01*
X114445571Y-99860500D01*
X114503762Y-99879407D01*
X114539726Y-99928907D01*
X114539726Y-99990093D01*
X114515575Y-100029504D01*
X114377864Y-100167214D01*
X114377861Y-100167218D01*
X114268367Y-100331086D01*
X114192949Y-100513163D01*
X114192949Y-100513165D01*
X114154500Y-100706456D01*
X114154500Y-100903543D01*
X114192949Y-101096834D01*
X114192949Y-101096836D01*
X114268367Y-101278913D01*
X114277126Y-101292022D01*
X114377861Y-101442782D01*
X114517218Y-101582139D01*
X114681086Y-101691632D01*
X114863165Y-101767051D01*
X115056459Y-101805500D01*
X115056460Y-101805500D01*
X115253540Y-101805500D01*
X115253541Y-101805500D01*
X115446835Y-101767051D01*
X115628914Y-101691632D01*
X115792782Y-101582139D01*
X115932139Y-101442782D01*
X116041632Y-101278914D01*
X116117051Y-101096835D01*
X116155500Y-100903541D01*
X116155500Y-100706459D01*
X116117051Y-100513165D01*
X116041632Y-100331086D01*
X115932139Y-100167218D01*
X115794425Y-100029504D01*
X115766648Y-99974987D01*
X115776219Y-99914555D01*
X115819484Y-99871290D01*
X115864429Y-99860500D01*
X116985571Y-99860500D01*
X117043762Y-99879407D01*
X117079726Y-99928907D01*
X117079726Y-99990093D01*
X117055575Y-100029504D01*
X116917864Y-100167214D01*
X116917861Y-100167218D01*
X116808367Y-100331086D01*
X116732949Y-100513163D01*
X116732949Y-100513165D01*
X116694500Y-100706456D01*
X116694500Y-100903543D01*
X116732949Y-101096834D01*
X116732949Y-101096836D01*
X116808367Y-101278913D01*
X116817126Y-101292022D01*
X116917861Y-101442782D01*
X117057218Y-101582139D01*
X117221086Y-101691632D01*
X117403165Y-101767051D01*
X117596459Y-101805500D01*
X117596460Y-101805500D01*
X117793540Y-101805500D01*
X117793541Y-101805500D01*
X117986835Y-101767051D01*
X118168914Y-101691632D01*
X118332782Y-101582139D01*
X118472139Y-101442782D01*
X118572874Y-101292022D01*
X118581628Y-101278921D01*
X118581629Y-101278917D01*
X118581632Y-101278914D01*
X118617793Y-101191614D01*
X118657530Y-101145089D01*
X118709257Y-101130500D01*
X119220743Y-101130500D01*
X119278934Y-101149407D01*
X119312207Y-101191614D01*
X119348367Y-101278912D01*
X119348371Y-101278921D01*
X119415778Y-101379801D01*
X119457861Y-101442782D01*
X119597218Y-101582139D01*
X119761086Y-101691632D01*
X119943165Y-101767051D01*
X120136459Y-101805500D01*
X120136460Y-101805500D01*
X120333540Y-101805500D01*
X120333541Y-101805500D01*
X120526835Y-101767051D01*
X120708914Y-101691632D01*
X120872782Y-101582139D01*
X121012139Y-101442782D01*
X121121632Y-101278914D01*
X121197051Y-101096835D01*
X121235500Y-100903541D01*
X121235500Y-100706459D01*
X121197051Y-100513165D01*
X121121632Y-100331086D01*
X121012139Y-100167218D01*
X120874425Y-100029504D01*
X120846648Y-99974987D01*
X120856219Y-99914555D01*
X120899484Y-99871290D01*
X120944429Y-99860500D01*
X122065571Y-99860500D01*
X122123762Y-99879407D01*
X122159726Y-99928907D01*
X122159726Y-99990093D01*
X122135575Y-100029504D01*
X121997864Y-100167214D01*
X121997861Y-100167218D01*
X121888367Y-100331086D01*
X121812949Y-100513163D01*
X121812949Y-100513165D01*
X121774500Y-100706456D01*
X121774500Y-100903543D01*
X121812949Y-101096834D01*
X121812949Y-101096836D01*
X121888367Y-101278913D01*
X121897126Y-101292022D01*
X121997861Y-101442782D01*
X122137218Y-101582139D01*
X122301086Y-101691632D01*
X122444890Y-101751197D01*
X122491415Y-101790932D01*
X122505699Y-101850427D01*
X122482285Y-101906955D01*
X122477007Y-101912664D01*
X122030290Y-102359380D01*
X121975774Y-102387157D01*
X121922402Y-102380840D01*
X121811420Y-102334870D01*
X121608467Y-102294500D01*
X121608465Y-102294500D01*
X121401535Y-102294500D01*
X121401532Y-102294500D01*
X121198581Y-102334869D01*
X121007402Y-102414058D01*
X120835348Y-102529020D01*
X120689020Y-102675348D01*
X120574058Y-102847402D01*
X120494869Y-103038581D01*
X120454500Y-103241532D01*
X120454500Y-103448467D01*
X120494869Y-103651418D01*
X120574058Y-103842597D01*
X120689020Y-104014651D01*
X120689023Y-104014655D01*
X120819866Y-104145498D01*
X120847642Y-104200013D01*
X120838071Y-104260445D01*
X120794806Y-104303710D01*
X120749861Y-104314500D01*
X119720139Y-104314500D01*
X119661948Y-104295593D01*
X119625984Y-104246093D01*
X119625984Y-104184907D01*
X119650133Y-104145498D01*
X119780977Y-104014655D01*
X119895941Y-103842598D01*
X119975130Y-103651420D01*
X120015500Y-103448465D01*
X120015500Y-103241535D01*
X119975130Y-103038580D01*
X119895941Y-102847402D01*
X119780977Y-102675345D01*
X119634655Y-102529023D01*
X119634651Y-102529020D01*
X119462597Y-102414058D01*
X119271418Y-102334869D01*
X119068467Y-102294500D01*
X119068465Y-102294500D01*
X118861535Y-102294500D01*
X118861532Y-102294500D01*
X118658581Y-102334869D01*
X118467402Y-102414058D01*
X118295348Y-102529020D01*
X118149020Y-102675348D01*
X118034058Y-102847402D01*
X117954869Y-103038581D01*
X117914500Y-103241532D01*
X117914500Y-103448467D01*
X117954869Y-103651418D01*
X118034058Y-103842597D01*
X118149020Y-104014651D01*
X118149023Y-104014655D01*
X118279866Y-104145498D01*
X118307642Y-104200013D01*
X118298071Y-104260445D01*
X118254806Y-104303710D01*
X118209861Y-104314500D01*
X117180139Y-104314500D01*
X117121948Y-104295593D01*
X117085984Y-104246093D01*
X117085984Y-104184907D01*
X117110133Y-104145498D01*
X117240977Y-104014655D01*
X117355941Y-103842598D01*
X117435130Y-103651420D01*
X117475500Y-103448465D01*
X117475500Y-103241535D01*
X117435130Y-103038580D01*
X117355941Y-102847402D01*
X117240977Y-102675345D01*
X117094655Y-102529023D01*
X117094651Y-102529020D01*
X116922597Y-102414058D01*
X116731418Y-102334869D01*
X116528467Y-102294500D01*
X116528465Y-102294500D01*
X116321535Y-102294500D01*
X116321532Y-102294500D01*
X116118581Y-102334869D01*
X115927402Y-102414058D01*
X115755348Y-102529020D01*
X115609020Y-102675348D01*
X115494058Y-102847402D01*
X115414869Y-103038581D01*
X115374500Y-103241532D01*
X115374500Y-103448467D01*
X115414869Y-103651418D01*
X115494058Y-103842597D01*
X115609020Y-104014651D01*
X115609023Y-104014655D01*
X115739866Y-104145498D01*
X115767642Y-104200013D01*
X115758071Y-104260445D01*
X115714806Y-104303710D01*
X115669861Y-104314500D01*
X114640139Y-104314500D01*
X114581948Y-104295593D01*
X114545984Y-104246093D01*
X114545984Y-104184907D01*
X114570133Y-104145498D01*
X114700977Y-104014655D01*
X114815941Y-103842598D01*
X114895130Y-103651420D01*
X114935500Y-103448465D01*
X114935500Y-103241535D01*
X114895130Y-103038580D01*
X114815941Y-102847402D01*
X114700977Y-102675345D01*
X114554655Y-102529023D01*
X114554651Y-102529020D01*
X114382597Y-102414058D01*
X114191418Y-102334869D01*
X113988467Y-102294500D01*
X113988465Y-102294500D01*
X113781535Y-102294500D01*
X113781532Y-102294500D01*
X113578581Y-102334869D01*
X113387402Y-102414058D01*
X113215348Y-102529020D01*
X113069020Y-102675348D01*
X112954058Y-102847402D01*
X112874869Y-103038581D01*
X112834500Y-103241532D01*
X112834500Y-103448467D01*
X112874869Y-103651418D01*
X112954058Y-103842597D01*
X113069020Y-104014651D01*
X113069023Y-104014655D01*
X113199866Y-104145498D01*
X113227642Y-104200013D01*
X113218071Y-104260445D01*
X113174806Y-104303710D01*
X113129861Y-104314500D01*
X112100139Y-104314500D01*
X112041948Y-104295593D01*
X112005984Y-104246093D01*
X112005984Y-104184907D01*
X112030133Y-104145498D01*
X112160977Y-104014655D01*
X112275941Y-103842598D01*
X112355130Y-103651420D01*
X112395500Y-103448465D01*
X112395500Y-103241535D01*
X112355130Y-103038580D01*
X112275941Y-102847402D01*
X112160977Y-102675345D01*
X112014655Y-102529023D01*
X112014651Y-102529020D01*
X111842597Y-102414058D01*
X111651418Y-102334869D01*
X111448467Y-102294500D01*
X111448465Y-102294500D01*
X111241535Y-102294500D01*
X111241532Y-102294500D01*
X111038581Y-102334869D01*
X110847402Y-102414058D01*
X110675348Y-102529020D01*
X110529020Y-102675348D01*
X110414058Y-102847402D01*
X110334869Y-103038581D01*
X110294500Y-103241532D01*
X110294500Y-103448467D01*
X110334869Y-103651418D01*
X110414058Y-103842597D01*
X110529020Y-104014651D01*
X110529023Y-104014655D01*
X110659866Y-104145498D01*
X110687642Y-104200013D01*
X110678071Y-104260445D01*
X110634806Y-104303710D01*
X110589861Y-104314500D01*
X109954500Y-104314500D01*
X109896309Y-104295593D01*
X109860345Y-104246093D01*
X109855500Y-104215500D01*
X109855500Y-102475253D01*
X109855498Y-102475241D01*
X109851383Y-102454555D01*
X109843867Y-102416769D01*
X109799552Y-102350448D01*
X109776779Y-102335231D01*
X109733233Y-102306134D01*
X109726788Y-102303465D01*
X109680261Y-102263729D01*
X109665977Y-102204234D01*
X109689391Y-102147706D01*
X109741560Y-102115736D01*
X109764672Y-102113000D01*
X109820999Y-102113000D01*
X109821000Y-102112999D01*
X109821000Y-101116686D01*
X109829394Y-101125080D01*
X109920606Y-101177741D01*
X110022339Y-101205000D01*
X110127661Y-101205000D01*
X110229394Y-101177741D01*
X110320606Y-101125080D01*
X110329000Y-101116686D01*
X110329000Y-102112999D01*
X110329001Y-102113000D01*
X110675516Y-102113000D01*
X110779321Y-102102394D01*
X110947525Y-102046657D01*
X111098337Y-101953635D01*
X111223635Y-101828337D01*
X111316657Y-101677525D01*
X111372394Y-101509321D01*
X111383000Y-101405515D01*
X111383000Y-101059001D01*
X111382999Y-101059000D01*
X110386686Y-101059000D01*
X110395080Y-101050606D01*
X110447741Y-100959394D01*
X110475000Y-100857661D01*
X110475000Y-100752339D01*
X110447741Y-100650606D01*
X110395080Y-100559394D01*
X110386686Y-100551000D01*
X111382999Y-100551000D01*
X111383000Y-100550999D01*
X111383000Y-100204484D01*
X111372394Y-100100678D01*
X111335932Y-99990640D01*
X111335576Y-99929455D01*
X111371251Y-99879747D01*
X111429331Y-99860502D01*
X111429907Y-99860500D01*
X111905571Y-99860500D01*
X111963762Y-99879407D01*
G37*
%TD.AperFunction*%
%TA.AperFunction,Conductor*%
G36*
X133113691Y-59214407D02*
G01*
X133149655Y-59263907D01*
X133154500Y-59294500D01*
X133154500Y-61034746D01*
X133154501Y-61034758D01*
X133166132Y-61093227D01*
X133166134Y-61093233D01*
X133210445Y-61159548D01*
X133210448Y-61159552D01*
X133276769Y-61203867D01*
X133321231Y-61212711D01*
X133335241Y-61215498D01*
X133335246Y-61215498D01*
X133335252Y-61215500D01*
X134789521Y-61215500D01*
X134847712Y-61234407D01*
X134859524Y-61244496D01*
X135170488Y-61555459D01*
X135170493Y-61555463D01*
X135239008Y-61595020D01*
X135239006Y-61595020D01*
X135239010Y-61595021D01*
X135239012Y-61595022D01*
X135315438Y-61615500D01*
X137055867Y-61615500D01*
X137114058Y-61634407D01*
X137125871Y-61644496D01*
X138516886Y-63035511D01*
X138516885Y-63035511D01*
X138572835Y-63091460D01*
X138641353Y-63131019D01*
X138641357Y-63131021D01*
X138717781Y-63151499D01*
X138717783Y-63151500D01*
X138717784Y-63151500D01*
X138796908Y-63151500D01*
X144388835Y-63151500D01*
X144447026Y-63170407D01*
X144458839Y-63180496D01*
X144879504Y-63601161D01*
X144907281Y-63655678D01*
X144908500Y-63671165D01*
X144908500Y-75864250D01*
X144928977Y-75940671D01*
X144928979Y-75940675D01*
X144963480Y-76000434D01*
X144968538Y-76009194D01*
X144968540Y-76009197D01*
X145583854Y-76624511D01*
X145583853Y-76624511D01*
X145639803Y-76680460D01*
X145708321Y-76720019D01*
X145708325Y-76720021D01*
X145784749Y-76740499D01*
X145784751Y-76740500D01*
X145784752Y-76740500D01*
X146605521Y-76740500D01*
X146663712Y-76759407D01*
X146675525Y-76769496D01*
X147018104Y-77112075D01*
X147045881Y-77166592D01*
X147043728Y-77207698D01*
X147037500Y-77230943D01*
X147037500Y-77389057D01*
X147078423Y-77541784D01*
X147157480Y-77678716D01*
X147269284Y-77790520D01*
X147406216Y-77869577D01*
X147558943Y-77910500D01*
X147558945Y-77910500D01*
X147717055Y-77910500D01*
X147717057Y-77910500D01*
X147869784Y-77869577D01*
X147918002Y-77841738D01*
X147977847Y-77829017D01*
X148033743Y-77853903D01*
X148064336Y-77906891D01*
X148066500Y-77927475D01*
X148066500Y-80351319D01*
X148047593Y-80409510D01*
X147998093Y-80445474D01*
X147936907Y-80445474D01*
X147918002Y-80437056D01*
X147881135Y-80415772D01*
X147881133Y-80415771D01*
X147881131Y-80415770D01*
X147728404Y-80374847D01*
X147570290Y-80374847D01*
X147417563Y-80415770D01*
X147280631Y-80494827D01*
X147168827Y-80606631D01*
X147089770Y-80743563D01*
X147077540Y-80789208D01*
X147048847Y-80896291D01*
X147048847Y-81054407D01*
X147049584Y-81060007D01*
X147046957Y-81074178D01*
X147049212Y-81088413D01*
X147041520Y-81103507D01*
X147038433Y-81120168D01*
X147021435Y-81142930D01*
X146927863Y-81236503D01*
X146873347Y-81264281D01*
X146857859Y-81265500D01*
X144973219Y-81265500D01*
X144915028Y-81246593D01*
X144879064Y-81197093D01*
X144879064Y-81135907D01*
X144887479Y-81117005D01*
X144898577Y-81097784D01*
X144939500Y-80945057D01*
X144939500Y-80786943D01*
X144898577Y-80634216D01*
X144819520Y-80497284D01*
X144707716Y-80385480D01*
X144570784Y-80306423D01*
X144418057Y-80265500D01*
X144259943Y-80265500D01*
X144107216Y-80306423D01*
X143970284Y-80385480D01*
X143858480Y-80497284D01*
X143779423Y-80634216D01*
X143738500Y-80786943D01*
X143738500Y-80945057D01*
X143779423Y-81097784D01*
X143790518Y-81117002D01*
X143803239Y-81176849D01*
X143778352Y-81232744D01*
X143725364Y-81263337D01*
X143704781Y-81265500D01*
X116029834Y-81265500D01*
X115971643Y-81246593D01*
X115959830Y-81236504D01*
X115324496Y-80601169D01*
X115296719Y-80546652D01*
X115295500Y-80531165D01*
X115295500Y-78373943D01*
X119481500Y-78373943D01*
X119481500Y-78532057D01*
X119522423Y-78684784D01*
X119601480Y-78821716D01*
X119713284Y-78933520D01*
X119850216Y-79012577D01*
X120002943Y-79053500D01*
X120002945Y-79053500D01*
X120161055Y-79053500D01*
X120161057Y-79053500D01*
X120313784Y-79012577D01*
X120450716Y-78933520D01*
X120562520Y-78821716D01*
X120641577Y-78684784D01*
X120682500Y-78532057D01*
X120682500Y-78373943D01*
X131292500Y-78373943D01*
X131292500Y-78532057D01*
X131333423Y-78684784D01*
X131412480Y-78821716D01*
X131524284Y-78933520D01*
X131661216Y-79012577D01*
X131813943Y-79053500D01*
X131813945Y-79053500D01*
X131972055Y-79053500D01*
X131972057Y-79053500D01*
X132124784Y-79012577D01*
X132261716Y-78933520D01*
X132373520Y-78821716D01*
X132452577Y-78684784D01*
X132493500Y-78532057D01*
X132493500Y-78373943D01*
X132452577Y-78221216D01*
X132373520Y-78084284D01*
X132261716Y-77972480D01*
X132124784Y-77893423D01*
X131972057Y-77852500D01*
X131813943Y-77852500D01*
X131661216Y-77893423D01*
X131524284Y-77972480D01*
X131412480Y-78084284D01*
X131333423Y-78221216D01*
X131292500Y-78373943D01*
X120682500Y-78373943D01*
X120641577Y-78221216D01*
X120562520Y-78084284D01*
X120450716Y-77972480D01*
X120313784Y-77893423D01*
X120161057Y-77852500D01*
X120002943Y-77852500D01*
X119850216Y-77893423D01*
X119713284Y-77972480D01*
X119601480Y-78084284D01*
X119522423Y-78221216D01*
X119481500Y-78373943D01*
X115295500Y-78373943D01*
X115295500Y-77948018D01*
X115314407Y-77889827D01*
X115363907Y-77853863D01*
X115425093Y-77853863D01*
X115474593Y-77889827D01*
X115480232Y-77898512D01*
X115499980Y-77932716D01*
X115611784Y-78044520D01*
X115748716Y-78123577D01*
X115901443Y-78164500D01*
X115901445Y-78164500D01*
X116059555Y-78164500D01*
X116059557Y-78164500D01*
X116212284Y-78123577D01*
X116349216Y-78044520D01*
X116461020Y-77932716D01*
X116540077Y-77795784D01*
X116581000Y-77643057D01*
X116581000Y-77484943D01*
X116580999Y-77484942D01*
X116580262Y-77479339D01*
X116582888Y-77465164D01*
X116580634Y-77450928D01*
X116588323Y-77435836D01*
X116591411Y-77419178D01*
X116608408Y-77396416D01*
X116721330Y-77283496D01*
X116775847Y-77255719D01*
X116791333Y-77254500D01*
X120039147Y-77254500D01*
X124472498Y-77254500D01*
X124530689Y-77273407D01*
X124551040Y-77293233D01*
X124554476Y-77297711D01*
X124554478Y-77297713D01*
X124554480Y-77297716D01*
X124666284Y-77409520D01*
X124803216Y-77488577D01*
X124955943Y-77529500D01*
X124955945Y-77529500D01*
X125114055Y-77529500D01*
X125114057Y-77529500D01*
X125266784Y-77488577D01*
X125403716Y-77409520D01*
X125515520Y-77297716D01*
X125515523Y-77297711D01*
X125518960Y-77293233D01*
X125569384Y-77258577D01*
X125597502Y-77254500D01*
X130314498Y-77254500D01*
X130372689Y-77273407D01*
X130393040Y-77293233D01*
X130396476Y-77297711D01*
X130396478Y-77297713D01*
X130396480Y-77297716D01*
X130508284Y-77409520D01*
X130645216Y-77488577D01*
X130797943Y-77529500D01*
X130797945Y-77529500D01*
X130956055Y-77529500D01*
X130956057Y-77529500D01*
X131108784Y-77488577D01*
X131245716Y-77409520D01*
X131357520Y-77297716D01*
X131436577Y-77160784D01*
X131477500Y-77008057D01*
X131477500Y-76849943D01*
X131436577Y-76697216D01*
X131357520Y-76560284D01*
X131245716Y-76448480D01*
X131108784Y-76369423D01*
X131006227Y-76341943D01*
X137769500Y-76341943D01*
X137769500Y-76500057D01*
X137810423Y-76652784D01*
X137889480Y-76789716D01*
X138001284Y-76901520D01*
X138138216Y-76980577D01*
X138290943Y-77021500D01*
X138290945Y-77021500D01*
X138449055Y-77021500D01*
X138449057Y-77021500D01*
X138601784Y-76980577D01*
X138738716Y-76901520D01*
X138850520Y-76789716D01*
X138929577Y-76652784D01*
X138970500Y-76500057D01*
X138970500Y-76341943D01*
X138929577Y-76189216D01*
X138850520Y-76052284D01*
X138738716Y-75940480D01*
X138601784Y-75861423D01*
X138449057Y-75820500D01*
X138290943Y-75820500D01*
X138138216Y-75861423D01*
X138001284Y-75940480D01*
X137889480Y-76052284D01*
X137810423Y-76189216D01*
X137769500Y-76341943D01*
X131006227Y-76341943D01*
X130956057Y-76328500D01*
X130797943Y-76328500D01*
X130667101Y-76363559D01*
X130645216Y-76369423D01*
X130508284Y-76448480D01*
X130396476Y-76560288D01*
X130393040Y-76564767D01*
X130342616Y-76599423D01*
X130314498Y-76603500D01*
X126917857Y-76603500D01*
X126859666Y-76584593D01*
X126823702Y-76535093D01*
X126823702Y-76473907D01*
X126832116Y-76455007D01*
X126864577Y-76398784D01*
X126905500Y-76246057D01*
X126905500Y-76087943D01*
X126864577Y-75935216D01*
X126785520Y-75798284D01*
X126673716Y-75686480D01*
X126536784Y-75607423D01*
X126384057Y-75566500D01*
X126225943Y-75566500D01*
X126073216Y-75607423D01*
X125936284Y-75686480D01*
X125824480Y-75798284D01*
X125745423Y-75935216D01*
X125704500Y-76087943D01*
X125704500Y-76246057D01*
X125745423Y-76398784D01*
X125777880Y-76455002D01*
X125780079Y-76465348D01*
X125786298Y-76473907D01*
X125786298Y-76494603D01*
X125790601Y-76514848D01*
X125786298Y-76524512D01*
X125786298Y-76535093D01*
X125774131Y-76551839D01*
X125765714Y-76570744D01*
X125756553Y-76576033D01*
X125750334Y-76584593D01*
X125730649Y-76590988D01*
X125712726Y-76601337D01*
X125692143Y-76603500D01*
X125597502Y-76603500D01*
X125539311Y-76584593D01*
X125518960Y-76564767D01*
X125515523Y-76560288D01*
X125515521Y-76560286D01*
X125515520Y-76560284D01*
X125403716Y-76448480D01*
X125266784Y-76369423D01*
X125114057Y-76328500D01*
X124955943Y-76328500D01*
X124825101Y-76363559D01*
X124803216Y-76369423D01*
X124666284Y-76448480D01*
X124554476Y-76560288D01*
X124551040Y-76564767D01*
X124500616Y-76599423D01*
X124472498Y-76603500D01*
X120257835Y-76603500D01*
X120250237Y-76601031D01*
X120242348Y-76602281D01*
X120221692Y-76591756D01*
X120199644Y-76584593D01*
X120187831Y-76574504D01*
X120182496Y-76569169D01*
X120154719Y-76514652D01*
X120153500Y-76499165D01*
X120153500Y-74951502D01*
X120172407Y-74893311D01*
X120192233Y-74872960D01*
X120196711Y-74869523D01*
X120196711Y-74869522D01*
X120196716Y-74869520D01*
X120308520Y-74757716D01*
X120387577Y-74620784D01*
X120428500Y-74468057D01*
X120428500Y-74309943D01*
X120387577Y-74157216D01*
X120308520Y-74020284D01*
X120196716Y-73908480D01*
X120059784Y-73829423D01*
X119907057Y-73788500D01*
X119748943Y-73788500D01*
X119596216Y-73829423D01*
X119459284Y-73908480D01*
X119347480Y-74020284D01*
X119268423Y-74157216D01*
X119227500Y-74309943D01*
X119227500Y-74468057D01*
X119268423Y-74620784D01*
X119347480Y-74757716D01*
X119459284Y-74869520D01*
X119459286Y-74869521D01*
X119459288Y-74869523D01*
X119463767Y-74872960D01*
X119498423Y-74923384D01*
X119502500Y-74951502D01*
X119502500Y-76504500D01*
X119483593Y-76562691D01*
X119434093Y-76598655D01*
X119403500Y-76603500D01*
X116658357Y-76603500D01*
X116658353Y-76603499D01*
X116572647Y-76603499D01*
X116494232Y-76624511D01*
X116489862Y-76625682D01*
X116489154Y-76626090D01*
X116489152Y-76626091D01*
X116415638Y-76668534D01*
X116355034Y-76729137D01*
X116355035Y-76729138D01*
X116355033Y-76729140D01*
X116355032Y-76729140D01*
X116148083Y-76936088D01*
X116093567Y-76963865D01*
X116065160Y-76964237D01*
X116059561Y-76963500D01*
X116059557Y-76963500D01*
X115901443Y-76963500D01*
X115748716Y-77004423D01*
X115611784Y-77083480D01*
X115499978Y-77195286D01*
X115480236Y-77229481D01*
X115434767Y-77270422D01*
X115373916Y-77276818D01*
X115320928Y-77246225D01*
X115296042Y-77190329D01*
X115295500Y-77179981D01*
X115295500Y-76600064D01*
X115314407Y-76541873D01*
X115363907Y-76505909D01*
X115368842Y-76504447D01*
X115487784Y-76472577D01*
X115624716Y-76393520D01*
X115736520Y-76281716D01*
X115815577Y-76144784D01*
X115856500Y-75992057D01*
X115856500Y-75833943D01*
X115815577Y-75681216D01*
X115736520Y-75544284D01*
X115624716Y-75432480D01*
X115487784Y-75353423D01*
X115335057Y-75312500D01*
X115176943Y-75312500D01*
X115100579Y-75332961D01*
X115024214Y-75353423D01*
X114967999Y-75385879D01*
X114908150Y-75398600D01*
X114852255Y-75373713D01*
X114821663Y-75320724D01*
X114819500Y-75300142D01*
X114819500Y-73204834D01*
X114838407Y-73146643D01*
X114848496Y-73134830D01*
X115361830Y-72621496D01*
X115416347Y-72593719D01*
X115431834Y-72592500D01*
X120985166Y-72592500D01*
X120992763Y-72594968D01*
X121000653Y-72593719D01*
X121021308Y-72604243D01*
X121043357Y-72611407D01*
X121055164Y-72621491D01*
X121126847Y-72693173D01*
X121131088Y-72697414D01*
X121158865Y-72751931D01*
X121159238Y-72780334D01*
X121158500Y-72785942D01*
X121158500Y-72785943D01*
X121158500Y-72944057D01*
X121199423Y-73096784D01*
X121278480Y-73233716D01*
X121390284Y-73345520D01*
X121527216Y-73424577D01*
X121679943Y-73465500D01*
X121679945Y-73465500D01*
X121838055Y-73465500D01*
X121838057Y-73465500D01*
X121990784Y-73424577D01*
X122127716Y-73345520D01*
X122239520Y-73233716D01*
X122318577Y-73096784D01*
X122333807Y-73039943D01*
X132689500Y-73039943D01*
X132689500Y-73198057D01*
X132730423Y-73350784D01*
X132809480Y-73487716D01*
X132921284Y-73599520D01*
X133058216Y-73678577D01*
X133210943Y-73719500D01*
X133210945Y-73719500D01*
X133369055Y-73719500D01*
X133369057Y-73719500D01*
X133521784Y-73678577D01*
X133658716Y-73599520D01*
X133770520Y-73487716D01*
X133849577Y-73350784D01*
X133890500Y-73198057D01*
X133890500Y-73039943D01*
X133849577Y-72887216D01*
X133770520Y-72750284D01*
X133658716Y-72638480D01*
X133521784Y-72559423D01*
X133369057Y-72518500D01*
X133210943Y-72518500D01*
X133058216Y-72559423D01*
X132921284Y-72638480D01*
X132809480Y-72750284D01*
X132730423Y-72887216D01*
X132689500Y-73039943D01*
X122333807Y-73039943D01*
X122359500Y-72944057D01*
X122359500Y-72785943D01*
X122318577Y-72633216D01*
X122239520Y-72496284D01*
X122127716Y-72384480D01*
X121990784Y-72305423D01*
X121838057Y-72264500D01*
X121679943Y-72264500D01*
X121679941Y-72264500D01*
X121674332Y-72265238D01*
X121614172Y-72254084D01*
X121591413Y-72237087D01*
X121360862Y-72006535D01*
X121360857Y-72006531D01*
X121286642Y-71963683D01*
X121286644Y-71963683D01*
X121254521Y-71955076D01*
X121203853Y-71941500D01*
X121203851Y-71941500D01*
X115304932Y-71941500D01*
X115304916Y-71941499D01*
X115298853Y-71941499D01*
X115213147Y-71941499D01*
X115213144Y-71941499D01*
X115130361Y-71963681D01*
X115106834Y-71977265D01*
X115093250Y-71985108D01*
X115069721Y-71998692D01*
X115056137Y-72006535D01*
X114995534Y-72067137D01*
X114995535Y-72067138D01*
X114538504Y-72524169D01*
X114483987Y-72551946D01*
X114423555Y-72542375D01*
X114380290Y-72499110D01*
X114369500Y-72454165D01*
X114369500Y-71738834D01*
X114388407Y-71680643D01*
X114398496Y-71668830D01*
X115096341Y-70970985D01*
X115150858Y-70943208D01*
X115166345Y-70941989D01*
X123372654Y-70941989D01*
X123430845Y-70960896D01*
X123442658Y-70970985D01*
X123645088Y-71173415D01*
X123672865Y-71227932D01*
X123673238Y-71256338D01*
X123672500Y-71261941D01*
X123672500Y-71261943D01*
X123672500Y-71420057D01*
X123713423Y-71572784D01*
X123792480Y-71709716D01*
X123904284Y-71821520D01*
X124041216Y-71900577D01*
X124193943Y-71941500D01*
X124193945Y-71941500D01*
X124352055Y-71941500D01*
X124352057Y-71941500D01*
X124504784Y-71900577D01*
X124641716Y-71821520D01*
X124753520Y-71709716D01*
X124832577Y-71572784D01*
X124873500Y-71420057D01*
X124873500Y-71261943D01*
X124832577Y-71109216D01*
X124753520Y-70972284D01*
X124641716Y-70860480D01*
X124504784Y-70781423D01*
X124352057Y-70740500D01*
X124193943Y-70740500D01*
X124193941Y-70740500D01*
X124188338Y-70741238D01*
X124128177Y-70730085D01*
X124105416Y-70713088D01*
X123748351Y-70356024D01*
X123748346Y-70356020D01*
X123674131Y-70313172D01*
X123674133Y-70313172D01*
X123642010Y-70304565D01*
X123591342Y-70290989D01*
X123591340Y-70290989D01*
X115039443Y-70290989D01*
X115039427Y-70290988D01*
X115033364Y-70290988D01*
X114947658Y-70290988D01*
X114864872Y-70313171D01*
X114842027Y-70326361D01*
X114842026Y-70326360D01*
X114790647Y-70356024D01*
X114730045Y-70416626D01*
X114730046Y-70416627D01*
X113783531Y-71363142D01*
X113740682Y-71437360D01*
X113740681Y-71437360D01*
X113740682Y-71437361D01*
X113718500Y-71520147D01*
X113718500Y-80298968D01*
X113699593Y-80357159D01*
X113650093Y-80393123D01*
X113645124Y-80394595D01*
X113500215Y-80433423D01*
X113393860Y-80494827D01*
X113363284Y-80512480D01*
X113251480Y-80624284D01*
X113172423Y-80761216D01*
X113141993Y-80874785D01*
X113135127Y-80900408D01*
X113101803Y-80951722D01*
X113044681Y-80973649D01*
X112985581Y-80957813D01*
X112947076Y-80910263D01*
X112940500Y-80874785D01*
X112940500Y-71871833D01*
X112959407Y-71813642D01*
X112969490Y-71801835D01*
X115160381Y-69610943D01*
X123672500Y-69610943D01*
X123672500Y-69769057D01*
X123713423Y-69921784D01*
X123792480Y-70058716D01*
X123904284Y-70170520D01*
X124041216Y-70249577D01*
X124193943Y-70290500D01*
X124193945Y-70290500D01*
X124352055Y-70290500D01*
X124352057Y-70290500D01*
X124504784Y-70249577D01*
X124641716Y-70170520D01*
X124753520Y-70058716D01*
X124832577Y-69921784D01*
X124873500Y-69769057D01*
X124873500Y-69610943D01*
X137388500Y-69610943D01*
X137388500Y-69769057D01*
X137429423Y-69921784D01*
X137508480Y-70058716D01*
X137620284Y-70170520D01*
X137757216Y-70249577D01*
X137909943Y-70290500D01*
X137909945Y-70290500D01*
X138068055Y-70290500D01*
X138068057Y-70290500D01*
X138220784Y-70249577D01*
X138357716Y-70170520D01*
X138469520Y-70058716D01*
X138469523Y-70058711D01*
X138472960Y-70054233D01*
X138523384Y-70019577D01*
X138551502Y-70015500D01*
X142512166Y-70015500D01*
X142570357Y-70034407D01*
X142582169Y-70044496D01*
X142822087Y-70284413D01*
X142849865Y-70338930D01*
X142850238Y-70367332D01*
X142849500Y-70372940D01*
X142849500Y-70372943D01*
X142849500Y-70531057D01*
X142890423Y-70683784D01*
X142969480Y-70820716D01*
X143081284Y-70932520D01*
X143218216Y-71011577D01*
X143370943Y-71052500D01*
X143370945Y-71052500D01*
X143529055Y-71052500D01*
X143529057Y-71052500D01*
X143681784Y-71011577D01*
X143818716Y-70932520D01*
X143930520Y-70820716D01*
X144009577Y-70683784D01*
X144050500Y-70531057D01*
X144050500Y-70372943D01*
X144009577Y-70220216D01*
X143930520Y-70083284D01*
X143818716Y-69971480D01*
X143681784Y-69892423D01*
X143529057Y-69851500D01*
X143370943Y-69851500D01*
X143370941Y-69851500D01*
X143365332Y-69852238D01*
X143305172Y-69841084D01*
X143282413Y-69824087D01*
X143096543Y-69638217D01*
X142887862Y-69429535D01*
X142887857Y-69429531D01*
X142813642Y-69386683D01*
X142813644Y-69386683D01*
X142781521Y-69378076D01*
X142730853Y-69364500D01*
X142730851Y-69364500D01*
X138551502Y-69364500D01*
X138493311Y-69345593D01*
X138472960Y-69325767D01*
X138469523Y-69321288D01*
X138469521Y-69321286D01*
X138469520Y-69321284D01*
X138357716Y-69209480D01*
X138220784Y-69130423D01*
X138068057Y-69089500D01*
X137909943Y-69089500D01*
X137757216Y-69130423D01*
X137620284Y-69209480D01*
X137508480Y-69321284D01*
X137429423Y-69458216D01*
X137388500Y-69610943D01*
X124873500Y-69610943D01*
X124832577Y-69458216D01*
X124753520Y-69321284D01*
X124641716Y-69209480D01*
X124504784Y-69130423D01*
X124352057Y-69089500D01*
X124193943Y-69089500D01*
X124041216Y-69130423D01*
X123904284Y-69209480D01*
X123792480Y-69321284D01*
X123713423Y-69458216D01*
X123672500Y-69610943D01*
X115160381Y-69610943D01*
X115723415Y-69047909D01*
X115777930Y-69020134D01*
X115806341Y-69019762D01*
X115811940Y-69020499D01*
X115811943Y-69020500D01*
X115811946Y-69020500D01*
X115970055Y-69020500D01*
X115970057Y-69020500D01*
X116122784Y-68979577D01*
X116259716Y-68900520D01*
X116311293Y-68848943D01*
X117322500Y-68848943D01*
X117322500Y-69007057D01*
X117363423Y-69159784D01*
X117442480Y-69296716D01*
X117554284Y-69408520D01*
X117691216Y-69487577D01*
X117843943Y-69528500D01*
X117843945Y-69528500D01*
X118002055Y-69528500D01*
X118002057Y-69528500D01*
X118154784Y-69487577D01*
X118291716Y-69408520D01*
X118403520Y-69296716D01*
X118482577Y-69159784D01*
X118523500Y-69007057D01*
X118523500Y-68848943D01*
X118482577Y-68696216D01*
X118403520Y-68559284D01*
X118291716Y-68447480D01*
X118154784Y-68368423D01*
X118002057Y-68327500D01*
X117843943Y-68327500D01*
X117691216Y-68368423D01*
X117554284Y-68447480D01*
X117442480Y-68559284D01*
X117363423Y-68696216D01*
X117322500Y-68848943D01*
X116311293Y-68848943D01*
X116371520Y-68788716D01*
X116450577Y-68651784D01*
X116491500Y-68499057D01*
X116491500Y-68340943D01*
X116450577Y-68188216D01*
X116371520Y-68051284D01*
X116259716Y-67939480D01*
X116122784Y-67860423D01*
X115970057Y-67819500D01*
X115811943Y-67819500D01*
X115659216Y-67860423D01*
X115522284Y-67939480D01*
X115410480Y-68051284D01*
X115331423Y-68188216D01*
X115290500Y-68340944D01*
X115290500Y-68499060D01*
X115291237Y-68504660D01*
X115280086Y-68564821D01*
X115263088Y-68587584D01*
X112354532Y-71496141D01*
X112354531Y-71496142D01*
X112311682Y-71570360D01*
X112311681Y-71570360D01*
X112311682Y-71570361D01*
X112289500Y-71653147D01*
X112289500Y-84550743D01*
X112270593Y-84608934D01*
X112228386Y-84642207D01*
X112141087Y-84678367D01*
X112141078Y-84678371D01*
X111977218Y-84787861D01*
X111977214Y-84787864D01*
X111839504Y-84925575D01*
X111784987Y-84953352D01*
X111724555Y-84943781D01*
X111681290Y-84900516D01*
X111670500Y-84855571D01*
X111670500Y-81869077D01*
X111670500Y-81869076D01*
X111648318Y-81786291D01*
X111648318Y-81786290D01*
X111648318Y-81786289D01*
X111605468Y-81712071D01*
X111605467Y-81712070D01*
X111605466Y-81712069D01*
X111605465Y-81712067D01*
X111081974Y-81188576D01*
X111054197Y-81134059D01*
X111053826Y-81105644D01*
X111054563Y-81100048D01*
X111054563Y-80941936D01*
X111054563Y-80941935D01*
X111013640Y-80789208D01*
X110934583Y-80652276D01*
X110822779Y-80540472D01*
X110685847Y-80461415D01*
X110533120Y-80420492D01*
X110375006Y-80420492D01*
X110222279Y-80461415D01*
X110085347Y-80540472D01*
X109973543Y-80652276D01*
X109894486Y-80789208D01*
X109853563Y-80941935D01*
X109853563Y-81100049D01*
X109894486Y-81252776D01*
X109973543Y-81389708D01*
X110085347Y-81501512D01*
X110222279Y-81580569D01*
X110375006Y-81621492D01*
X110375008Y-81621492D01*
X110533119Y-81621492D01*
X110533120Y-81621492D01*
X110533120Y-81621491D01*
X110538715Y-81620755D01*
X110598877Y-81631901D01*
X110621647Y-81648903D01*
X110990504Y-82017760D01*
X111018281Y-82072277D01*
X111019500Y-82087764D01*
X111019500Y-84855571D01*
X111000593Y-84913762D01*
X110951093Y-84949726D01*
X110889907Y-84949726D01*
X110850496Y-84925575D01*
X110712785Y-84787864D01*
X110712782Y-84787861D01*
X110579668Y-84698917D01*
X110548913Y-84678367D01*
X110366835Y-84602949D01*
X110173543Y-84564500D01*
X110173541Y-84564500D01*
X109976459Y-84564500D01*
X109976456Y-84564500D01*
X109783165Y-84602949D01*
X109783163Y-84602949D01*
X109601086Y-84678367D01*
X109437218Y-84787861D01*
X109437214Y-84787864D01*
X109297864Y-84927214D01*
X109297861Y-84927218D01*
X109188367Y-85091086D01*
X109112949Y-85273163D01*
X109112949Y-85273165D01*
X109074500Y-85466456D01*
X109074500Y-85663543D01*
X109112949Y-85856834D01*
X109112949Y-85856836D01*
X109188367Y-86038913D01*
X109188368Y-86038914D01*
X109297861Y-86202782D01*
X109437218Y-86342139D01*
X109601086Y-86451632D01*
X109783165Y-86527051D01*
X109976459Y-86565500D01*
X109976460Y-86565500D01*
X110173540Y-86565500D01*
X110173541Y-86565500D01*
X110366835Y-86527051D01*
X110548914Y-86451632D01*
X110712782Y-86342139D01*
X110850496Y-86204425D01*
X110905013Y-86176648D01*
X110965445Y-86186219D01*
X111008710Y-86229484D01*
X111019500Y-86274429D01*
X111019500Y-86792147D01*
X111019500Y-86877853D01*
X111039062Y-86950863D01*
X111041683Y-86960643D01*
X111084531Y-87034857D01*
X111084533Y-87034859D01*
X111084535Y-87034862D01*
X112260505Y-88210832D01*
X112288281Y-88265347D01*
X112289500Y-88280834D01*
X112289500Y-90082497D01*
X112270593Y-90140688D01*
X112250772Y-90161036D01*
X112246287Y-90164477D01*
X112246284Y-90164480D01*
X112134480Y-90276284D01*
X112055423Y-90413216D01*
X112014500Y-90565943D01*
X112014500Y-90724057D01*
X112055423Y-90876784D01*
X112134480Y-91013716D01*
X112246284Y-91125520D01*
X112383216Y-91204577D01*
X112535943Y-91245500D01*
X112535945Y-91245500D01*
X112694055Y-91245500D01*
X112694057Y-91245500D01*
X112846784Y-91204577D01*
X112983716Y-91125520D01*
X113095520Y-91013716D01*
X113174577Y-90876784D01*
X113215500Y-90724057D01*
X113215500Y-90565943D01*
X113174577Y-90413216D01*
X113095520Y-90276284D01*
X112983716Y-90164480D01*
X112983713Y-90164478D01*
X112983712Y-90164477D01*
X112979228Y-90161036D01*
X112944575Y-90110609D01*
X112940500Y-90082497D01*
X112940500Y-88062148D01*
X112940500Y-88062147D01*
X112918318Y-87979362D01*
X112918318Y-87979361D01*
X112918318Y-87979360D01*
X112875468Y-87905142D01*
X112875467Y-87905141D01*
X112875466Y-87905140D01*
X112875465Y-87905138D01*
X111699496Y-86729169D01*
X111671719Y-86674652D01*
X111670500Y-86659165D01*
X111670500Y-86274429D01*
X111689407Y-86216238D01*
X111738907Y-86180274D01*
X111800093Y-86180274D01*
X111839504Y-86204425D01*
X111977218Y-86342139D01*
X112141086Y-86451632D01*
X112323165Y-86527051D01*
X112516459Y-86565500D01*
X112516460Y-86565500D01*
X112713540Y-86565500D01*
X112713541Y-86565500D01*
X112906835Y-86527051D01*
X113088914Y-86451632D01*
X113252782Y-86342139D01*
X113390496Y-86204425D01*
X113445013Y-86176648D01*
X113505445Y-86186219D01*
X113548710Y-86229484D01*
X113559500Y-86274429D01*
X113559500Y-95162497D01*
X113540593Y-95220688D01*
X113520772Y-95241036D01*
X113516287Y-95244477D01*
X113516284Y-95244480D01*
X113404480Y-95356284D01*
X113325423Y-95493216D01*
X113284500Y-95645943D01*
X113284500Y-95804057D01*
X113325423Y-95956784D01*
X113404480Y-96093716D01*
X113516284Y-96205520D01*
X113653216Y-96284577D01*
X113805943Y-96325500D01*
X113805945Y-96325500D01*
X113964055Y-96325500D01*
X113964057Y-96325500D01*
X114116784Y-96284577D01*
X114253716Y-96205520D01*
X114365520Y-96093716D01*
X114365523Y-96093711D01*
X114368960Y-96089233D01*
X114419384Y-96054577D01*
X114447502Y-96050500D01*
X129832498Y-96050500D01*
X129890689Y-96069407D01*
X129911040Y-96089233D01*
X129914476Y-96093711D01*
X129914478Y-96093713D01*
X129914480Y-96093716D01*
X130026284Y-96205520D01*
X130163216Y-96284577D01*
X130315943Y-96325500D01*
X130315945Y-96325500D01*
X130474055Y-96325500D01*
X130474057Y-96325500D01*
X130626784Y-96284577D01*
X130763716Y-96205520D01*
X130875520Y-96093716D01*
X130954577Y-95956784D01*
X130995500Y-95804057D01*
X130995500Y-95645943D01*
X130954577Y-95493216D01*
X130875520Y-95356284D01*
X130763716Y-95244480D01*
X130626784Y-95165423D01*
X130474057Y-95124500D01*
X130315943Y-95124500D01*
X130174136Y-95162497D01*
X130163216Y-95165423D01*
X130026284Y-95244480D01*
X129914476Y-95356288D01*
X129911040Y-95360767D01*
X129860616Y-95395423D01*
X129832498Y-95399500D01*
X114447502Y-95399500D01*
X114439904Y-95397031D01*
X114432015Y-95398281D01*
X114417894Y-95389880D01*
X114389311Y-95380593D01*
X114377498Y-95370503D01*
X114368581Y-95361586D01*
X114365520Y-95356284D01*
X114253716Y-95244480D01*
X114248415Y-95241419D01*
X114239496Y-95232500D01*
X114228408Y-95210739D01*
X114214575Y-95190609D01*
X114213152Y-95180798D01*
X114211719Y-95177984D01*
X114212254Y-95174601D01*
X114210500Y-95162497D01*
X114210500Y-93105943D01*
X118364500Y-93105943D01*
X118364500Y-93264057D01*
X118405423Y-93416784D01*
X118484480Y-93553716D01*
X118596284Y-93665520D01*
X118733216Y-93744577D01*
X118885943Y-93785500D01*
X118885945Y-93785500D01*
X119044055Y-93785500D01*
X119044057Y-93785500D01*
X119196784Y-93744577D01*
X119333716Y-93665520D01*
X119445520Y-93553716D01*
X119445523Y-93553711D01*
X119448960Y-93549233D01*
X119499384Y-93514577D01*
X119527502Y-93510500D01*
X132372498Y-93510500D01*
X132430689Y-93529407D01*
X132451040Y-93549233D01*
X132454476Y-93553711D01*
X132454478Y-93553713D01*
X132454480Y-93553716D01*
X132566284Y-93665520D01*
X132703216Y-93744577D01*
X132855943Y-93785500D01*
X132855945Y-93785500D01*
X133014055Y-93785500D01*
X133014057Y-93785500D01*
X133166784Y-93744577D01*
X133303716Y-93665520D01*
X133415520Y-93553716D01*
X133494577Y-93416784D01*
X133535500Y-93264057D01*
X133535500Y-93105943D01*
X133494577Y-92953216D01*
X133415520Y-92816284D01*
X133303716Y-92704480D01*
X133166784Y-92625423D01*
X133014057Y-92584500D01*
X132855943Y-92584500D01*
X132703216Y-92625423D01*
X132566284Y-92704480D01*
X132454476Y-92816288D01*
X132451040Y-92820767D01*
X132400616Y-92855423D01*
X132372498Y-92859500D01*
X119527502Y-92859500D01*
X119469311Y-92840593D01*
X119448960Y-92820767D01*
X119445523Y-92816288D01*
X119445521Y-92816286D01*
X119445520Y-92816284D01*
X119333716Y-92704480D01*
X119196784Y-92625423D01*
X119044057Y-92584500D01*
X118885943Y-92584500D01*
X118733216Y-92625423D01*
X118596284Y-92704480D01*
X118484480Y-92816284D01*
X118405423Y-92953216D01*
X118364500Y-93105943D01*
X114210500Y-93105943D01*
X114210500Y-86274429D01*
X114229407Y-86216238D01*
X114278907Y-86180274D01*
X114340093Y-86180274D01*
X114379504Y-86204425D01*
X114517218Y-86342139D01*
X114681086Y-86451632D01*
X114863165Y-86527051D01*
X115056459Y-86565500D01*
X115056460Y-86565500D01*
X115253540Y-86565500D01*
X115253541Y-86565500D01*
X115446835Y-86527051D01*
X115628914Y-86451632D01*
X115792782Y-86342139D01*
X115932139Y-86202782D01*
X116041632Y-86038914D01*
X116117051Y-85856835D01*
X116155500Y-85663541D01*
X116155500Y-85466459D01*
X116117051Y-85273165D01*
X116041632Y-85091086D01*
X115932139Y-84927218D01*
X115932133Y-84927212D01*
X115929046Y-84923449D01*
X115930988Y-84921855D01*
X115907586Y-84875925D01*
X115917157Y-84815493D01*
X115960422Y-84772228D01*
X116020854Y-84762657D01*
X116054867Y-84774701D01*
X116056281Y-84775517D01*
X116056284Y-84775520D01*
X116193216Y-84854577D01*
X116345943Y-84895500D01*
X116345945Y-84895500D01*
X116504055Y-84895500D01*
X116504057Y-84895500D01*
X116656784Y-84854577D01*
X116793716Y-84775520D01*
X116793719Y-84775516D01*
X116795132Y-84774701D01*
X116854980Y-84761980D01*
X116910876Y-84786867D01*
X116941469Y-84839855D01*
X116935073Y-84900705D01*
X116920011Y-84922675D01*
X116920954Y-84923449D01*
X116917861Y-84927218D01*
X116808367Y-85091086D01*
X116732949Y-85273163D01*
X116732949Y-85273165D01*
X116694500Y-85466456D01*
X116694500Y-85663543D01*
X116732949Y-85856834D01*
X116732949Y-85856836D01*
X116808367Y-86038913D01*
X116808368Y-86038914D01*
X116917861Y-86202782D01*
X117057218Y-86342139D01*
X117221086Y-86451632D01*
X117403165Y-86527051D01*
X117596459Y-86565500D01*
X117596460Y-86565500D01*
X117793540Y-86565500D01*
X117793541Y-86565500D01*
X117986835Y-86527051D01*
X118168914Y-86451632D01*
X118332782Y-86342139D01*
X118472139Y-86202782D01*
X118581632Y-86038914D01*
X118657051Y-85856835D01*
X118695500Y-85663541D01*
X118695500Y-85466459D01*
X118695499Y-85466456D01*
X119234500Y-85466456D01*
X119234500Y-85663543D01*
X119272949Y-85856834D01*
X119272949Y-85856836D01*
X119348367Y-86038913D01*
X119348368Y-86038914D01*
X119457861Y-86202782D01*
X119597218Y-86342139D01*
X119761086Y-86451632D01*
X119943165Y-86527051D01*
X120136459Y-86565500D01*
X120136460Y-86565500D01*
X120333540Y-86565500D01*
X120333541Y-86565500D01*
X120526835Y-86527051D01*
X120708914Y-86451632D01*
X120872782Y-86342139D01*
X121012139Y-86202782D01*
X121121632Y-86038914D01*
X121197051Y-85856835D01*
X121235500Y-85663541D01*
X121235500Y-85466459D01*
X121235499Y-85466456D01*
X121774500Y-85466456D01*
X121774500Y-85663543D01*
X121812949Y-85856834D01*
X121812949Y-85856836D01*
X121888367Y-86038913D01*
X121888368Y-86038914D01*
X121997861Y-86202782D01*
X122137218Y-86342139D01*
X122301086Y-86451632D01*
X122483165Y-86527051D01*
X122676459Y-86565500D01*
X122676460Y-86565500D01*
X122873540Y-86565500D01*
X122873541Y-86565500D01*
X123066835Y-86527051D01*
X123248914Y-86451632D01*
X123412782Y-86342139D01*
X123552139Y-86202782D01*
X123661632Y-86038914D01*
X123737051Y-85856835D01*
X123775500Y-85663541D01*
X123775500Y-85466459D01*
X123775499Y-85466456D01*
X124314500Y-85466456D01*
X124314500Y-85663543D01*
X124352949Y-85856834D01*
X124352949Y-85856836D01*
X124428367Y-86038913D01*
X124428368Y-86038914D01*
X124537861Y-86202782D01*
X124677218Y-86342139D01*
X124841086Y-86451632D01*
X125023165Y-86527051D01*
X125216459Y-86565500D01*
X125216460Y-86565500D01*
X125413540Y-86565500D01*
X125413541Y-86565500D01*
X125606835Y-86527051D01*
X125788914Y-86451632D01*
X125952782Y-86342139D01*
X126092139Y-86202782D01*
X126201632Y-86038914D01*
X126277051Y-85856835D01*
X126315500Y-85663541D01*
X126315500Y-85466459D01*
X126315499Y-85466456D01*
X126854500Y-85466456D01*
X126854500Y-85663543D01*
X126892949Y-85856834D01*
X126892949Y-85856836D01*
X126968367Y-86038913D01*
X126968368Y-86038914D01*
X127077861Y-86202782D01*
X127217218Y-86342139D01*
X127381086Y-86451632D01*
X127563165Y-86527051D01*
X127756459Y-86565500D01*
X127756460Y-86565500D01*
X127953540Y-86565500D01*
X127953541Y-86565500D01*
X128146835Y-86527051D01*
X128328914Y-86451632D01*
X128492782Y-86342139D01*
X128632139Y-86202782D01*
X128741632Y-86038914D01*
X128817051Y-85856835D01*
X128855500Y-85663541D01*
X128855500Y-85466459D01*
X128855499Y-85466456D01*
X129394500Y-85466456D01*
X129394500Y-85663543D01*
X129432949Y-85856834D01*
X129432949Y-85856836D01*
X129508367Y-86038913D01*
X129508368Y-86038914D01*
X129617861Y-86202782D01*
X129757218Y-86342139D01*
X129921086Y-86451632D01*
X130103165Y-86527051D01*
X130296459Y-86565500D01*
X130296460Y-86565500D01*
X130493540Y-86565500D01*
X130493541Y-86565500D01*
X130686835Y-86527051D01*
X130868914Y-86451632D01*
X131032782Y-86342139D01*
X131172139Y-86202782D01*
X131281632Y-86038914D01*
X131357051Y-85856835D01*
X131395500Y-85663541D01*
X131395500Y-85466459D01*
X131395499Y-85466456D01*
X131934500Y-85466456D01*
X131934500Y-85663543D01*
X131972949Y-85856834D01*
X131972949Y-85856836D01*
X132048367Y-86038913D01*
X132048368Y-86038914D01*
X132157861Y-86202782D01*
X132297218Y-86342139D01*
X132461086Y-86451632D01*
X132643165Y-86527051D01*
X132836459Y-86565500D01*
X132836460Y-86565500D01*
X133033540Y-86565500D01*
X133033541Y-86565500D01*
X133226835Y-86527051D01*
X133408914Y-86451632D01*
X133572782Y-86342139D01*
X133712139Y-86202782D01*
X133821632Y-86038914D01*
X133897051Y-85856835D01*
X133935500Y-85663541D01*
X133935500Y-85466459D01*
X133935499Y-85466456D01*
X134474500Y-85466456D01*
X134474500Y-85663543D01*
X134512949Y-85856834D01*
X134512949Y-85856836D01*
X134588367Y-86038913D01*
X134588368Y-86038914D01*
X134697861Y-86202782D01*
X134837218Y-86342139D01*
X135001086Y-86451632D01*
X135183165Y-86527051D01*
X135376459Y-86565500D01*
X135376460Y-86565500D01*
X135573540Y-86565500D01*
X135573541Y-86565500D01*
X135766835Y-86527051D01*
X135948914Y-86451632D01*
X136112782Y-86342139D01*
X136252139Y-86202782D01*
X136361632Y-86038914D01*
X136437051Y-85856835D01*
X136475500Y-85663541D01*
X136475500Y-85466459D01*
X136475499Y-85466456D01*
X137014500Y-85466456D01*
X137014500Y-85663543D01*
X137052949Y-85856834D01*
X137052949Y-85856836D01*
X137128367Y-86038913D01*
X137128368Y-86038914D01*
X137237861Y-86202782D01*
X137377218Y-86342139D01*
X137541086Y-86451632D01*
X137723165Y-86527051D01*
X137916459Y-86565500D01*
X137916460Y-86565500D01*
X138113540Y-86565500D01*
X138113541Y-86565500D01*
X138306835Y-86527051D01*
X138488914Y-86451632D01*
X138652782Y-86342139D01*
X138792139Y-86202782D01*
X138901632Y-86038914D01*
X138977051Y-85856835D01*
X139015500Y-85663541D01*
X139015500Y-85466459D01*
X139015499Y-85466456D01*
X139554500Y-85466456D01*
X139554500Y-85663543D01*
X139592949Y-85856834D01*
X139592949Y-85856836D01*
X139668367Y-86038913D01*
X139668368Y-86038914D01*
X139777861Y-86202782D01*
X139917218Y-86342139D01*
X140081086Y-86451632D01*
X140263165Y-86527051D01*
X140456459Y-86565500D01*
X140456460Y-86565500D01*
X140653540Y-86565500D01*
X140653541Y-86565500D01*
X140846835Y-86527051D01*
X141028914Y-86451632D01*
X141192782Y-86342139D01*
X141332139Y-86202782D01*
X141441632Y-86038914D01*
X141517051Y-85856835D01*
X141555500Y-85663541D01*
X141555500Y-85466459D01*
X141555499Y-85466456D01*
X142094500Y-85466456D01*
X142094500Y-85663543D01*
X142132949Y-85856834D01*
X142132949Y-85856836D01*
X142208367Y-86038913D01*
X142208368Y-86038914D01*
X142317861Y-86202782D01*
X142457218Y-86342139D01*
X142621086Y-86451632D01*
X142803165Y-86527051D01*
X142996459Y-86565500D01*
X142996460Y-86565500D01*
X143193540Y-86565500D01*
X143193541Y-86565500D01*
X143386835Y-86527051D01*
X143568914Y-86451632D01*
X143732782Y-86342139D01*
X143872139Y-86202782D01*
X143981632Y-86038914D01*
X144057051Y-85856835D01*
X144095500Y-85663541D01*
X144095500Y-85466459D01*
X144057051Y-85273165D01*
X143981632Y-85091086D01*
X143872139Y-84927218D01*
X143732782Y-84787861D01*
X143599668Y-84698917D01*
X143568913Y-84678367D01*
X143386835Y-84602949D01*
X143193543Y-84564500D01*
X143193541Y-84564500D01*
X142996459Y-84564500D01*
X142996456Y-84564500D01*
X142803165Y-84602949D01*
X142803163Y-84602949D01*
X142621086Y-84678367D01*
X142457218Y-84787861D01*
X142457214Y-84787864D01*
X142317864Y-84927214D01*
X142317861Y-84927218D01*
X142208367Y-85091086D01*
X142132949Y-85273163D01*
X142132949Y-85273165D01*
X142094500Y-85466456D01*
X141555499Y-85466456D01*
X141517051Y-85273165D01*
X141441632Y-85091086D01*
X141332139Y-84927218D01*
X141192782Y-84787861D01*
X141059668Y-84698917D01*
X141028913Y-84678367D01*
X140846835Y-84602949D01*
X140653543Y-84564500D01*
X140653541Y-84564500D01*
X140456459Y-84564500D01*
X140456456Y-84564500D01*
X140263165Y-84602949D01*
X140263163Y-84602949D01*
X140081086Y-84678367D01*
X139917218Y-84787861D01*
X139917214Y-84787864D01*
X139777864Y-84927214D01*
X139777861Y-84927218D01*
X139668367Y-85091086D01*
X139592949Y-85273163D01*
X139592949Y-85273165D01*
X139554500Y-85466456D01*
X139015499Y-85466456D01*
X138977051Y-85273165D01*
X138901632Y-85091086D01*
X138792139Y-84927218D01*
X138652782Y-84787861D01*
X138519668Y-84698917D01*
X138488913Y-84678367D01*
X138306835Y-84602949D01*
X138113543Y-84564500D01*
X138113541Y-84564500D01*
X137916459Y-84564500D01*
X137916456Y-84564500D01*
X137723165Y-84602949D01*
X137723163Y-84602949D01*
X137541086Y-84678367D01*
X137377218Y-84787861D01*
X137377214Y-84787864D01*
X137237864Y-84927214D01*
X137237861Y-84927218D01*
X137128367Y-85091086D01*
X137052949Y-85273163D01*
X137052949Y-85273165D01*
X137014500Y-85466456D01*
X136475499Y-85466456D01*
X136437051Y-85273165D01*
X136361632Y-85091086D01*
X136252139Y-84927218D01*
X136112782Y-84787861D01*
X135979668Y-84698917D01*
X135948913Y-84678367D01*
X135766835Y-84602949D01*
X135573543Y-84564500D01*
X135573541Y-84564500D01*
X135376459Y-84564500D01*
X135376456Y-84564500D01*
X135183165Y-84602949D01*
X135183163Y-84602949D01*
X135001086Y-84678367D01*
X134837218Y-84787861D01*
X134837214Y-84787864D01*
X134697864Y-84927214D01*
X134697861Y-84927218D01*
X134588367Y-85091086D01*
X134512949Y-85273163D01*
X134512949Y-85273165D01*
X134474500Y-85466456D01*
X133935499Y-85466456D01*
X133897051Y-85273165D01*
X133821632Y-85091086D01*
X133712139Y-84927218D01*
X133572782Y-84787861D01*
X133439668Y-84698917D01*
X133408913Y-84678367D01*
X133226835Y-84602949D01*
X133033543Y-84564500D01*
X133033541Y-84564500D01*
X132836459Y-84564500D01*
X132836456Y-84564500D01*
X132643165Y-84602949D01*
X132643163Y-84602949D01*
X132461086Y-84678367D01*
X132297218Y-84787861D01*
X132297214Y-84787864D01*
X132157864Y-84927214D01*
X132157861Y-84927218D01*
X132048367Y-85091086D01*
X131972949Y-85273163D01*
X131972949Y-85273165D01*
X131934500Y-85466456D01*
X131395499Y-85466456D01*
X131357051Y-85273165D01*
X131281632Y-85091086D01*
X131172139Y-84927218D01*
X131032782Y-84787861D01*
X130899668Y-84698917D01*
X130868913Y-84678367D01*
X130686835Y-84602949D01*
X130493543Y-84564500D01*
X130493541Y-84564500D01*
X130296459Y-84564500D01*
X130296456Y-84564500D01*
X130103165Y-84602949D01*
X130103163Y-84602949D01*
X129921086Y-84678367D01*
X129757218Y-84787861D01*
X129757214Y-84787864D01*
X129617864Y-84927214D01*
X129617861Y-84927218D01*
X129508367Y-85091086D01*
X129432949Y-85273163D01*
X129432949Y-85273165D01*
X129394500Y-85466456D01*
X128855499Y-85466456D01*
X128817051Y-85273165D01*
X128741632Y-85091086D01*
X128632139Y-84927218D01*
X128492782Y-84787861D01*
X128359668Y-84698917D01*
X128328913Y-84678367D01*
X128146835Y-84602949D01*
X127953543Y-84564500D01*
X127953541Y-84564500D01*
X127756459Y-84564500D01*
X127756456Y-84564500D01*
X127563165Y-84602949D01*
X127563163Y-84602949D01*
X127381086Y-84678367D01*
X127217218Y-84787861D01*
X127217214Y-84787864D01*
X127077864Y-84927214D01*
X127077861Y-84927218D01*
X126968367Y-85091086D01*
X126892949Y-85273163D01*
X126892949Y-85273165D01*
X126854500Y-85466456D01*
X126315499Y-85466456D01*
X126277051Y-85273165D01*
X126201632Y-85091086D01*
X126092139Y-84927218D01*
X125952782Y-84787861D01*
X125819668Y-84698917D01*
X125788913Y-84678367D01*
X125606835Y-84602949D01*
X125413543Y-84564500D01*
X125413541Y-84564500D01*
X125216459Y-84564500D01*
X125216456Y-84564500D01*
X125023165Y-84602949D01*
X125023163Y-84602949D01*
X124841086Y-84678367D01*
X124677218Y-84787861D01*
X124677214Y-84787864D01*
X124537864Y-84927214D01*
X124537861Y-84927218D01*
X124428367Y-85091086D01*
X124352949Y-85273163D01*
X124352949Y-85273165D01*
X124314500Y-85466456D01*
X123775499Y-85466456D01*
X123737051Y-85273165D01*
X123661632Y-85091086D01*
X123552139Y-84927218D01*
X123412782Y-84787861D01*
X123279668Y-84698917D01*
X123248913Y-84678367D01*
X123066835Y-84602949D01*
X122873543Y-84564500D01*
X122873541Y-84564500D01*
X122676459Y-84564500D01*
X122676456Y-84564500D01*
X122483165Y-84602949D01*
X122483163Y-84602949D01*
X122301086Y-84678367D01*
X122137218Y-84787861D01*
X122137214Y-84787864D01*
X121997864Y-84927214D01*
X121997861Y-84927218D01*
X121888367Y-85091086D01*
X121812949Y-85273163D01*
X121812949Y-85273165D01*
X121774500Y-85466456D01*
X121235499Y-85466456D01*
X121197051Y-85273165D01*
X121121632Y-85091086D01*
X121012139Y-84927218D01*
X120872782Y-84787861D01*
X120739668Y-84698917D01*
X120708913Y-84678367D01*
X120526835Y-84602949D01*
X120333543Y-84564500D01*
X120333541Y-84564500D01*
X120136459Y-84564500D01*
X120136456Y-84564500D01*
X119943165Y-84602949D01*
X119943163Y-84602949D01*
X119761086Y-84678367D01*
X119597218Y-84787861D01*
X119597214Y-84787864D01*
X119457864Y-84927214D01*
X119457861Y-84927218D01*
X119348367Y-85091086D01*
X119272949Y-85273163D01*
X119272949Y-85273165D01*
X119234500Y-85466456D01*
X118695499Y-85466456D01*
X118657051Y-85273165D01*
X118581632Y-85091086D01*
X118472139Y-84927218D01*
X118332782Y-84787861D01*
X118199668Y-84698917D01*
X118168913Y-84678367D01*
X117986835Y-84602949D01*
X117793543Y-84564500D01*
X117793541Y-84564500D01*
X117596459Y-84564500D01*
X117596456Y-84564500D01*
X117403165Y-84602949D01*
X117403163Y-84602949D01*
X117221086Y-84678367D01*
X117057218Y-84787861D01*
X117053449Y-84790954D01*
X117051886Y-84789049D01*
X117005697Y-84812449D01*
X116945287Y-84802737D01*
X116902124Y-84759371D01*
X116892693Y-84698917D01*
X116904701Y-84665132D01*
X116905516Y-84663719D01*
X116905520Y-84663716D01*
X116984577Y-84526784D01*
X117025500Y-84374057D01*
X117025500Y-84215943D01*
X116984577Y-84063216D01*
X116905520Y-83926284D01*
X116793716Y-83814480D01*
X116793713Y-83814478D01*
X116793712Y-83814477D01*
X116789228Y-83811036D01*
X116754575Y-83760609D01*
X116750500Y-83732497D01*
X116750500Y-82781834D01*
X116769407Y-82723643D01*
X116779496Y-82711830D01*
X117095830Y-82395496D01*
X117150347Y-82367719D01*
X117165834Y-82366500D01*
X142258637Y-82366500D01*
X142316828Y-82385407D01*
X142352792Y-82434907D01*
X142352792Y-82496093D01*
X142337178Y-82525768D01*
X142334483Y-82529279D01*
X142334480Y-82529283D01*
X142334480Y-82529284D01*
X142255423Y-82666216D01*
X142214500Y-82818943D01*
X142214500Y-82977057D01*
X142255423Y-83129784D01*
X142334480Y-83266716D01*
X142446284Y-83378520D01*
X142583216Y-83457577D01*
X142735943Y-83498500D01*
X142735945Y-83498500D01*
X142894055Y-83498500D01*
X142894057Y-83498500D01*
X143046784Y-83457577D01*
X143183716Y-83378520D01*
X143295520Y-83266716D01*
X143295523Y-83266711D01*
X143298960Y-83262233D01*
X143349384Y-83227577D01*
X143377502Y-83223500D01*
X144041665Y-83223500D01*
X144099856Y-83242407D01*
X144111669Y-83252496D01*
X144772504Y-83913331D01*
X144800281Y-83967848D01*
X144801500Y-83983335D01*
X144801500Y-89580165D01*
X144782593Y-89638356D01*
X144772504Y-89650169D01*
X144132169Y-90290504D01*
X144077652Y-90318281D01*
X144062165Y-90319500D01*
X120797502Y-90319500D01*
X120739311Y-90300593D01*
X120718960Y-90280767D01*
X120715523Y-90276288D01*
X120715521Y-90276286D01*
X120715520Y-90276284D01*
X120603716Y-90164480D01*
X120466784Y-90085423D01*
X120314057Y-90044500D01*
X120155943Y-90044500D01*
X120003216Y-90085423D01*
X119866284Y-90164480D01*
X119754480Y-90276284D01*
X119675423Y-90413216D01*
X119634500Y-90565943D01*
X119634500Y-90724057D01*
X119675423Y-90876784D01*
X119754480Y-91013716D01*
X119866284Y-91125520D01*
X120003216Y-91204577D01*
X120155943Y-91245500D01*
X120155945Y-91245500D01*
X120314055Y-91245500D01*
X120314057Y-91245500D01*
X120466784Y-91204577D01*
X120603716Y-91125520D01*
X120715520Y-91013716D01*
X120715523Y-91013711D01*
X120718960Y-91009233D01*
X120769384Y-90974577D01*
X120797502Y-90970500D01*
X144280851Y-90970500D01*
X144280853Y-90970500D01*
X144363639Y-90948318D01*
X144363641Y-90948316D01*
X144363643Y-90948316D01*
X144437857Y-90905468D01*
X144437857Y-90905467D01*
X144437862Y-90905465D01*
X145387465Y-89955862D01*
X145430318Y-89881639D01*
X145452500Y-89798853D01*
X145452500Y-89713147D01*
X145452500Y-83764647D01*
X145439331Y-83715500D01*
X145439331Y-83715498D01*
X145430320Y-83681866D01*
X145430319Y-83681864D01*
X145430318Y-83681863D01*
X145430318Y-83681861D01*
X145387465Y-83607638D01*
X144417362Y-82637535D01*
X144417359Y-82637533D01*
X144417357Y-82637531D01*
X144343142Y-82594683D01*
X144343144Y-82594683D01*
X144311021Y-82586076D01*
X144260353Y-82572500D01*
X144260351Y-82572500D01*
X143377502Y-82572500D01*
X143363791Y-82568045D01*
X143349380Y-82568422D01*
X143335420Y-82558827D01*
X143319311Y-82553593D01*
X143298957Y-82533764D01*
X143292819Y-82525764D01*
X143272398Y-82468087D01*
X143289778Y-82409422D01*
X143338322Y-82372177D01*
X143371364Y-82366500D01*
X147651851Y-82366500D01*
X147651853Y-82366500D01*
X147734639Y-82344318D01*
X147734641Y-82344316D01*
X147734643Y-82344316D01*
X147808857Y-82301468D01*
X147808857Y-82301467D01*
X147808862Y-82301465D01*
X148347498Y-81762828D01*
X148402013Y-81735053D01*
X148462445Y-81744624D01*
X148505710Y-81787889D01*
X148516500Y-81832834D01*
X148516500Y-82340882D01*
X148497593Y-82399073D01*
X148448093Y-82435037D01*
X148443124Y-82436508D01*
X148335219Y-82465421D01*
X148335218Y-82465421D01*
X148230701Y-82525764D01*
X148198284Y-82544480D01*
X148086480Y-82656284D01*
X148007423Y-82793216D01*
X147966500Y-82945943D01*
X147966500Y-83104057D01*
X148007423Y-83256784D01*
X148086480Y-83393716D01*
X148198284Y-83505520D01*
X148221366Y-83518846D01*
X148262306Y-83564314D01*
X148268703Y-83625164D01*
X148238111Y-83678152D01*
X148231175Y-83683198D01*
X148231430Y-83683531D01*
X148226290Y-83687474D01*
X148226284Y-83687480D01*
X148114480Y-83799284D01*
X148035423Y-83936216D01*
X147994500Y-84088943D01*
X147994500Y-84247057D01*
X148035423Y-84399784D01*
X148114480Y-84536716D01*
X148226284Y-84648520D01*
X148226286Y-84648521D01*
X148226288Y-84648523D01*
X148230767Y-84651960D01*
X148265423Y-84702384D01*
X148269500Y-84730502D01*
X148269500Y-90912165D01*
X148250593Y-90970356D01*
X148240504Y-90982169D01*
X147662169Y-91560504D01*
X147607652Y-91588281D01*
X147592165Y-91589500D01*
X123337502Y-91589500D01*
X123279311Y-91570593D01*
X123258960Y-91550767D01*
X123255523Y-91546288D01*
X123255521Y-91546286D01*
X123255520Y-91546284D01*
X123143716Y-91434480D01*
X123006784Y-91355423D01*
X122854057Y-91314500D01*
X122695943Y-91314500D01*
X122543216Y-91355423D01*
X122406284Y-91434480D01*
X122294480Y-91546284D01*
X122215423Y-91683216D01*
X122174500Y-91835943D01*
X122174500Y-91994057D01*
X122215423Y-92146784D01*
X122294480Y-92283716D01*
X122406284Y-92395520D01*
X122543216Y-92474577D01*
X122695943Y-92515500D01*
X122695945Y-92515500D01*
X122854055Y-92515500D01*
X122854057Y-92515500D01*
X123006784Y-92474577D01*
X123143716Y-92395520D01*
X123255520Y-92283716D01*
X123255523Y-92283711D01*
X123258960Y-92279233D01*
X123309384Y-92244577D01*
X123337502Y-92240500D01*
X147810851Y-92240500D01*
X147810853Y-92240500D01*
X147893639Y-92218318D01*
X147893641Y-92218316D01*
X147893643Y-92218316D01*
X147967857Y-92175468D01*
X147967857Y-92175467D01*
X147967862Y-92175465D01*
X148794859Y-91348466D01*
X148794862Y-91348465D01*
X148855465Y-91287862D01*
X148898318Y-91213638D01*
X148900746Y-91204577D01*
X148920501Y-91130853D01*
X148920501Y-91045147D01*
X148920500Y-91045143D01*
X148920500Y-84730502D01*
X148939407Y-84672311D01*
X148959233Y-84651960D01*
X148963711Y-84648523D01*
X148963711Y-84648522D01*
X148963716Y-84648520D01*
X149075520Y-84536716D01*
X149154577Y-84399784D01*
X149195500Y-84247057D01*
X149195500Y-84088943D01*
X149195499Y-84088941D01*
X149194762Y-84083341D01*
X149205911Y-84023180D01*
X149222908Y-84000417D01*
X149552465Y-83670862D01*
X149578849Y-83625164D01*
X149595316Y-83596643D01*
X149595316Y-83596641D01*
X149595318Y-83596639D01*
X149617500Y-83513853D01*
X149617500Y-83428147D01*
X149617500Y-64567147D01*
X149595318Y-64484361D01*
X149595316Y-64484358D01*
X149595316Y-64484356D01*
X149552468Y-64410142D01*
X149552467Y-64410141D01*
X149552466Y-64410140D01*
X149552465Y-64410138D01*
X148649911Y-63507584D01*
X148622134Y-63453067D01*
X148621763Y-63424652D01*
X148622500Y-63419056D01*
X148622500Y-63260944D01*
X148600944Y-63180496D01*
X148581577Y-63108216D01*
X148502520Y-62971284D01*
X148390716Y-62859480D01*
X148253784Y-62780423D01*
X148101057Y-62739500D01*
X147942943Y-62739500D01*
X147790216Y-62780423D01*
X147653284Y-62859480D01*
X147541480Y-62971284D01*
X147462423Y-63108216D01*
X147421500Y-63260943D01*
X147421500Y-63419057D01*
X147462423Y-63571784D01*
X147541480Y-63708716D01*
X147653284Y-63820520D01*
X147790216Y-63899577D01*
X147942943Y-63940500D01*
X147942945Y-63940500D01*
X148101056Y-63940500D01*
X148101057Y-63940500D01*
X148101057Y-63940499D01*
X148106652Y-63939763D01*
X148166814Y-63950909D01*
X148189584Y-63967911D01*
X148937504Y-64715831D01*
X148965281Y-64770348D01*
X148966500Y-64785835D01*
X148966500Y-66887165D01*
X148947593Y-66945356D01*
X148898093Y-66981320D01*
X148836907Y-66981320D01*
X148797496Y-66957169D01*
X148649911Y-66809584D01*
X148622134Y-66755067D01*
X148621763Y-66726652D01*
X148622500Y-66721056D01*
X148622500Y-66562944D01*
X148622500Y-66562943D01*
X148581577Y-66410216D01*
X148502520Y-66273284D01*
X148390716Y-66161480D01*
X148253784Y-66082423D01*
X148101057Y-66041500D01*
X147942943Y-66041500D01*
X147790216Y-66082423D01*
X147653284Y-66161480D01*
X147541480Y-66273284D01*
X147462423Y-66410216D01*
X147421500Y-66562943D01*
X147421500Y-66721057D01*
X147462423Y-66873784D01*
X147541480Y-67010716D01*
X147653284Y-67122520D01*
X147790216Y-67201577D01*
X147942943Y-67242500D01*
X147942945Y-67242500D01*
X148101056Y-67242500D01*
X148101057Y-67242500D01*
X148101057Y-67242499D01*
X148106652Y-67241763D01*
X148166814Y-67252909D01*
X148189584Y-67269911D01*
X148487504Y-67567831D01*
X148515281Y-67622348D01*
X148516500Y-67637835D01*
X148516500Y-69237628D01*
X148497593Y-69295819D01*
X148448093Y-69331783D01*
X148386907Y-69331783D01*
X148368001Y-69323365D01*
X148253785Y-69257423D01*
X148202875Y-69243782D01*
X148101057Y-69216500D01*
X147942943Y-69216500D01*
X147790216Y-69257423D01*
X147653284Y-69336480D01*
X147541480Y-69448284D01*
X147462423Y-69585216D01*
X147421500Y-69737943D01*
X147421500Y-69896057D01*
X147462423Y-70048784D01*
X147541480Y-70185716D01*
X147653284Y-70297520D01*
X147790216Y-70376577D01*
X147942943Y-70417500D01*
X147967500Y-70417500D01*
X148025691Y-70436407D01*
X148061655Y-70485907D01*
X148066500Y-70516500D01*
X148066500Y-75430449D01*
X148047593Y-75488640D01*
X147998093Y-75524604D01*
X147936907Y-75524604D01*
X147918001Y-75516186D01*
X147807785Y-75452553D01*
X147732870Y-75432480D01*
X147655057Y-75411630D01*
X147496943Y-75411630D01*
X147344216Y-75452553D01*
X147207284Y-75531610D01*
X147095479Y-75643415D01*
X147068583Y-75690001D01*
X147023113Y-75730941D01*
X146982847Y-75739500D01*
X146155479Y-75739500D01*
X146097288Y-75720593D01*
X146085475Y-75710504D01*
X145938496Y-75563525D01*
X145910719Y-75509008D01*
X145909500Y-75493521D01*
X145909500Y-63300437D01*
X145909499Y-63300435D01*
X145889021Y-63224011D01*
X145889019Y-63224007D01*
X145849460Y-63155489D01*
X145793511Y-63099539D01*
X145793511Y-63099540D01*
X144904511Y-62210540D01*
X144904508Y-62210538D01*
X144835992Y-62170980D01*
X144835988Y-62170978D01*
X144759564Y-62150500D01*
X144759562Y-62150500D01*
X139196479Y-62150500D01*
X139138288Y-62131593D01*
X139126475Y-62121504D01*
X138522215Y-61517244D01*
X138494438Y-61462727D01*
X138504009Y-61402295D01*
X138547274Y-61359030D01*
X138607706Y-61349459D01*
X138637164Y-61359030D01*
X138763710Y-61423508D01*
X138967002Y-61489561D01*
X139030999Y-61499697D01*
X139031000Y-61499696D01*
X139031000Y-60595702D01*
X139092007Y-60630925D01*
X139219174Y-60665000D01*
X139350826Y-60665000D01*
X139477993Y-60630925D01*
X139539000Y-60595702D01*
X139539000Y-61499697D01*
X139602997Y-61489561D01*
X139806289Y-61423508D01*
X139996746Y-61326466D01*
X139996752Y-61326462D01*
X140169671Y-61200828D01*
X140320828Y-61049671D01*
X140446462Y-60876752D01*
X140446466Y-60876746D01*
X140543508Y-60686289D01*
X140609562Y-60482995D01*
X140614868Y-60449494D01*
X140642645Y-60394977D01*
X140697161Y-60367199D01*
X140757593Y-60376770D01*
X140800858Y-60420034D01*
X140809746Y-60445665D01*
X140814867Y-60471411D01*
X140814869Y-60471417D01*
X140894058Y-60662597D01*
X141009020Y-60834651D01*
X141009023Y-60834655D01*
X141155345Y-60980977D01*
X141327402Y-61095941D01*
X141518580Y-61175130D01*
X141721535Y-61215500D01*
X141721536Y-61215500D01*
X141928464Y-61215500D01*
X141928465Y-61215500D01*
X142131420Y-61175130D01*
X142322598Y-61095941D01*
X142494655Y-60980977D01*
X142640977Y-60834655D01*
X142755941Y-60662598D01*
X142835130Y-60471420D01*
X142875500Y-60268465D01*
X142875500Y-60061535D01*
X142835130Y-59858580D01*
X142755941Y-59667402D01*
X142640977Y-59495345D01*
X142510133Y-59364501D01*
X142482358Y-59309987D01*
X142491929Y-59249555D01*
X142535194Y-59206290D01*
X142580139Y-59195500D01*
X143609861Y-59195500D01*
X143668052Y-59214407D01*
X143704016Y-59263907D01*
X143704016Y-59325093D01*
X143679866Y-59364501D01*
X143591121Y-59453247D01*
X143549020Y-59495348D01*
X143434058Y-59667402D01*
X143354869Y-59858581D01*
X143314500Y-60061532D01*
X143314500Y-60268467D01*
X143354869Y-60471418D01*
X143434058Y-60662597D01*
X143549020Y-60834651D01*
X143549023Y-60834655D01*
X143695345Y-60980977D01*
X143867402Y-61095941D01*
X144058580Y-61175130D01*
X144261535Y-61215500D01*
X144261536Y-61215500D01*
X144468464Y-61215500D01*
X144468465Y-61215500D01*
X144671420Y-61175130D01*
X144862598Y-61095941D01*
X145034655Y-60980977D01*
X145180977Y-60834655D01*
X145295941Y-60662598D01*
X145375130Y-60471420D01*
X145415500Y-60268465D01*
X145415500Y-60061535D01*
X145375130Y-59858580D01*
X145295941Y-59667402D01*
X145180977Y-59495345D01*
X145050133Y-59364501D01*
X145022358Y-59309987D01*
X145031929Y-59249555D01*
X145075194Y-59206290D01*
X145120139Y-59195500D01*
X150315500Y-59195500D01*
X150373691Y-59214407D01*
X150409655Y-59263907D01*
X150414500Y-59294500D01*
X150414500Y-102589861D01*
X150395593Y-102648052D01*
X150346093Y-102684016D01*
X150284907Y-102684016D01*
X150245498Y-102659866D01*
X150114655Y-102529023D01*
X150114651Y-102529020D01*
X149942597Y-102414058D01*
X149751418Y-102334869D01*
X149548467Y-102294500D01*
X149548465Y-102294500D01*
X149341535Y-102294500D01*
X149341532Y-102294500D01*
X149138581Y-102334869D01*
X148947402Y-102414058D01*
X148775348Y-102529020D01*
X148629020Y-102675348D01*
X148514058Y-102847402D01*
X148434869Y-103038582D01*
X148434868Y-103038586D01*
X148429746Y-103064335D01*
X148399849Y-103117718D01*
X148344283Y-103143333D01*
X148284274Y-103131395D01*
X148242742Y-103086465D01*
X148234868Y-103060506D01*
X148229561Y-103027003D01*
X148163508Y-102823710D01*
X148066466Y-102633253D01*
X148066462Y-102633247D01*
X147940828Y-102460328D01*
X147789671Y-102309171D01*
X147616752Y-102183537D01*
X147616746Y-102183533D01*
X147426289Y-102086491D01*
X147222996Y-102020438D01*
X147159000Y-102010301D01*
X147159000Y-102914297D01*
X147097993Y-102879075D01*
X146970826Y-102845000D01*
X146839174Y-102845000D01*
X146712007Y-102879075D01*
X146651000Y-102914297D01*
X146651000Y-102010302D01*
X146650999Y-102010301D01*
X146587003Y-102020438D01*
X146383710Y-102086491D01*
X146193253Y-102183533D01*
X146193247Y-102183537D01*
X146020328Y-102309171D01*
X145869171Y-102460328D01*
X145743537Y-102633247D01*
X145743533Y-102633253D01*
X145646491Y-102823710D01*
X145580438Y-103027001D01*
X145575131Y-103060508D01*
X145547352Y-103115024D01*
X145492835Y-103142800D01*
X145432403Y-103133228D01*
X145389139Y-103089962D01*
X145380252Y-103064332D01*
X145379491Y-103060508D01*
X145375130Y-103038580D01*
X145295941Y-102847402D01*
X145180977Y-102675345D01*
X145034655Y-102529023D01*
X145034651Y-102529020D01*
X144862597Y-102414058D01*
X144671418Y-102334869D01*
X144468467Y-102294500D01*
X144468465Y-102294500D01*
X144261535Y-102294500D01*
X144261532Y-102294500D01*
X144058580Y-102334870D01*
X144058578Y-102334870D01*
X143947596Y-102380840D01*
X143886599Y-102385640D01*
X143839708Y-102359380D01*
X143392992Y-101912665D01*
X143365214Y-101858148D01*
X143374785Y-101797716D01*
X143418050Y-101754451D01*
X143425110Y-101751197D01*
X143568914Y-101691632D01*
X143732782Y-101582139D01*
X143814553Y-101500368D01*
X144831500Y-101500368D01*
X144831500Y-101633631D01*
X144840941Y-101681093D01*
X144855115Y-101752350D01*
X144857498Y-101764327D01*
X144857498Y-101764329D01*
X144908493Y-101887441D01*
X144908494Y-101887443D01*
X144982528Y-101998243D01*
X145076757Y-102092472D01*
X145187557Y-102166506D01*
X145310672Y-102217502D01*
X145441371Y-102243500D01*
X145441372Y-102243500D01*
X145574628Y-102243500D01*
X145574629Y-102243500D01*
X145705328Y-102217502D01*
X145828443Y-102166506D01*
X145939243Y-102092472D01*
X146033472Y-101998243D01*
X146107506Y-101887443D01*
X146158502Y-101764328D01*
X146184500Y-101633629D01*
X146184500Y-101500371D01*
X146158502Y-101369672D01*
X146107506Y-101246557D01*
X146033472Y-101135757D01*
X145939243Y-101041528D01*
X145828443Y-100967494D01*
X145705328Y-100916498D01*
X145574631Y-100890500D01*
X145574629Y-100890500D01*
X145441371Y-100890500D01*
X145441368Y-100890500D01*
X145310672Y-100916498D01*
X145310670Y-100916498D01*
X145187558Y-100967493D01*
X145076758Y-101041527D01*
X144982527Y-101135758D01*
X144908493Y-101246558D01*
X144857498Y-101369670D01*
X144857498Y-101369672D01*
X144831500Y-101500368D01*
X143814553Y-101500368D01*
X143872139Y-101442782D01*
X143981632Y-101278914D01*
X144057051Y-101096835D01*
X144095500Y-100903541D01*
X144095500Y-100706459D01*
X144057051Y-100513165D01*
X143981632Y-100331086D01*
X143872139Y-100167218D01*
X143732782Y-100027861D01*
X143584687Y-99928907D01*
X143568913Y-99918367D01*
X143386835Y-99842949D01*
X143193543Y-99804500D01*
X143193541Y-99804500D01*
X142996459Y-99804500D01*
X142996456Y-99804500D01*
X142803165Y-99842949D01*
X142803163Y-99842949D01*
X142621086Y-99918367D01*
X142457218Y-100027861D01*
X142457214Y-100027864D01*
X142317864Y-100167214D01*
X142317861Y-100167218D01*
X142208367Y-100331086D01*
X142132949Y-100513163D01*
X142132949Y-100513165D01*
X142094500Y-100706456D01*
X142094500Y-100903543D01*
X142132949Y-101096834D01*
X142132949Y-101096836D01*
X142208367Y-101278913D01*
X142217126Y-101292022D01*
X142317861Y-101442782D01*
X142317862Y-101442783D01*
X142317864Y-101442785D01*
X142455575Y-101580496D01*
X142483352Y-101635013D01*
X142473781Y-101695445D01*
X142430516Y-101738710D01*
X142385571Y-101749500D01*
X141264429Y-101749500D01*
X141206238Y-101730593D01*
X141170274Y-101681093D01*
X141170274Y-101619907D01*
X141194425Y-101580496D01*
X141262064Y-101512857D01*
X141332139Y-101442782D01*
X141441632Y-101278914D01*
X141517051Y-101096835D01*
X141555500Y-100903541D01*
X141555500Y-100706459D01*
X141517051Y-100513165D01*
X141441632Y-100331086D01*
X141332139Y-100167218D01*
X141192782Y-100027861D01*
X141136258Y-99990093D01*
X141028921Y-99918371D01*
X141028912Y-99918367D01*
X140941614Y-99882207D01*
X140895089Y-99842470D01*
X140880500Y-99790743D01*
X140880500Y-95682148D01*
X140880500Y-95682147D01*
X140858318Y-95599362D01*
X140858318Y-95599361D01*
X140858318Y-95599360D01*
X140815468Y-95525142D01*
X140815466Y-95525140D01*
X140815465Y-95525138D01*
X139484862Y-94194535D01*
X139484859Y-94194533D01*
X139484857Y-94194531D01*
X139410642Y-94151683D01*
X139410644Y-94151683D01*
X139378521Y-94143076D01*
X139327853Y-94129500D01*
X139327851Y-94129500D01*
X116987502Y-94129500D01*
X116929311Y-94110593D01*
X116908960Y-94090767D01*
X116905523Y-94086288D01*
X116905521Y-94086286D01*
X116905520Y-94086284D01*
X116793716Y-93974480D01*
X116656784Y-93895423D01*
X116504057Y-93854500D01*
X116345943Y-93854500D01*
X116193216Y-93895423D01*
X116056284Y-93974480D01*
X115944480Y-94086284D01*
X115865423Y-94223216D01*
X115824500Y-94375943D01*
X115824500Y-94534057D01*
X115865423Y-94686784D01*
X115944480Y-94823716D01*
X116056284Y-94935520D01*
X116193216Y-95014577D01*
X116345943Y-95055500D01*
X116345945Y-95055500D01*
X116504055Y-95055500D01*
X116504057Y-95055500D01*
X116656784Y-95014577D01*
X116793716Y-94935520D01*
X116905520Y-94823716D01*
X116905523Y-94823711D01*
X116908960Y-94819233D01*
X116959384Y-94784577D01*
X116987502Y-94780500D01*
X139109165Y-94780500D01*
X139167356Y-94799407D01*
X139179169Y-94809496D01*
X140200504Y-95830831D01*
X140228281Y-95885348D01*
X140229500Y-95900835D01*
X140229500Y-99790743D01*
X140210593Y-99848934D01*
X140168386Y-99882207D01*
X140081087Y-99918367D01*
X140081078Y-99918371D01*
X139917218Y-100027861D01*
X139917214Y-100027864D01*
X139777864Y-100167214D01*
X139777861Y-100167218D01*
X139668367Y-100331086D01*
X139592949Y-100513163D01*
X139592949Y-100513165D01*
X139554500Y-100706456D01*
X139554500Y-100903543D01*
X139592949Y-101096834D01*
X139592949Y-101096836D01*
X139668367Y-101278913D01*
X139677126Y-101292022D01*
X139777861Y-101442782D01*
X139777862Y-101442783D01*
X139777864Y-101442785D01*
X139915575Y-101580496D01*
X139943352Y-101635013D01*
X139933781Y-101695445D01*
X139890516Y-101738710D01*
X139845571Y-101749500D01*
X138724429Y-101749500D01*
X138666238Y-101730593D01*
X138630274Y-101681093D01*
X138630274Y-101619907D01*
X138654425Y-101580496D01*
X138722064Y-101512857D01*
X138792139Y-101442782D01*
X138901632Y-101278914D01*
X138977051Y-101096835D01*
X139015500Y-100903541D01*
X139015500Y-100706459D01*
X138977051Y-100513165D01*
X138901632Y-100331086D01*
X138792139Y-100167218D01*
X138652782Y-100027861D01*
X138504687Y-99928907D01*
X138488913Y-99918367D01*
X138306835Y-99842949D01*
X138113543Y-99804500D01*
X138113541Y-99804500D01*
X137916459Y-99804500D01*
X137916456Y-99804500D01*
X137723166Y-99842948D01*
X137635863Y-99879109D01*
X137574866Y-99883908D01*
X137527975Y-99857648D01*
X136710823Y-99040496D01*
X135674862Y-98004535D01*
X135674859Y-98004533D01*
X135674858Y-98004532D01*
X135674857Y-98004531D01*
X135600642Y-97961683D01*
X135600644Y-97961683D01*
X135568521Y-97953076D01*
X135517853Y-97939500D01*
X135517851Y-97939500D01*
X111907502Y-97939500D01*
X111849311Y-97920593D01*
X111828960Y-97900767D01*
X111825523Y-97896288D01*
X111825521Y-97896286D01*
X111825520Y-97896284D01*
X111713716Y-97784480D01*
X111576784Y-97705423D01*
X111424057Y-97664500D01*
X111265943Y-97664500D01*
X111113216Y-97705423D01*
X110976284Y-97784480D01*
X110864480Y-97896284D01*
X110785423Y-98033216D01*
X110744500Y-98185943D01*
X110744500Y-98344057D01*
X110785423Y-98496784D01*
X110864480Y-98633716D01*
X110976284Y-98745520D01*
X111113216Y-98824577D01*
X111265943Y-98865500D01*
X111265945Y-98865500D01*
X111424055Y-98865500D01*
X111424057Y-98865500D01*
X111576784Y-98824577D01*
X111713716Y-98745520D01*
X111825520Y-98633716D01*
X111825523Y-98633711D01*
X111828960Y-98629233D01*
X111879384Y-98594577D01*
X111907502Y-98590500D01*
X135299165Y-98590500D01*
X135357356Y-98609407D01*
X135369169Y-98619496D01*
X135790169Y-99040496D01*
X135817946Y-99095013D01*
X135808375Y-99155445D01*
X135765110Y-99198710D01*
X135720165Y-99209500D01*
X129167853Y-99209500D01*
X129082147Y-99209500D01*
X129031478Y-99223076D01*
X128999356Y-99231683D01*
X128925142Y-99274531D01*
X128925137Y-99274535D01*
X128342022Y-99857648D01*
X128287506Y-99885425D01*
X128234135Y-99879109D01*
X128146833Y-99842948D01*
X127953543Y-99804500D01*
X127953541Y-99804500D01*
X127756459Y-99804500D01*
X127756456Y-99804500D01*
X127563165Y-99842949D01*
X127563163Y-99842949D01*
X127381086Y-99918367D01*
X127217218Y-100027861D01*
X127217214Y-100027864D01*
X127077864Y-100167214D01*
X127077861Y-100167218D01*
X126968367Y-100331086D01*
X126892949Y-100513163D01*
X126892949Y-100513165D01*
X126854500Y-100706456D01*
X126854500Y-100903543D01*
X126892949Y-101096834D01*
X126892949Y-101096836D01*
X126968367Y-101278913D01*
X126977126Y-101292022D01*
X127077861Y-101442782D01*
X127077862Y-101442783D01*
X127077864Y-101442785D01*
X127215575Y-101580496D01*
X127243352Y-101635013D01*
X127233781Y-101695445D01*
X127190516Y-101738710D01*
X127145571Y-101749500D01*
X126024429Y-101749500D01*
X125966238Y-101730593D01*
X125930274Y-101681093D01*
X125930274Y-101619907D01*
X125954425Y-101580496D01*
X126022064Y-101512857D01*
X126092139Y-101442782D01*
X126201632Y-101278914D01*
X126277051Y-101096835D01*
X126315500Y-100903541D01*
X126315500Y-100706459D01*
X126277051Y-100513165D01*
X126201632Y-100331086D01*
X126092139Y-100167218D01*
X125952782Y-100027861D01*
X125804687Y-99928907D01*
X125788913Y-99918367D01*
X125606835Y-99842949D01*
X125413543Y-99804500D01*
X125413541Y-99804500D01*
X125216459Y-99804500D01*
X125216456Y-99804500D01*
X125023166Y-99842948D01*
X124935863Y-99879109D01*
X124874866Y-99883908D01*
X124827975Y-99857648D01*
X124761070Y-99790743D01*
X124244862Y-99274535D01*
X124244859Y-99274533D01*
X124244858Y-99274532D01*
X124244857Y-99274531D01*
X124170642Y-99231683D01*
X124170644Y-99231683D01*
X124138521Y-99223076D01*
X124087853Y-99209500D01*
X109328233Y-99209500D01*
X109242527Y-99209500D01*
X109191858Y-99223076D01*
X109159736Y-99231683D01*
X109085522Y-99274531D01*
X108544531Y-99815522D01*
X108501682Y-99889740D01*
X108501681Y-99889740D01*
X108501682Y-99889741D01*
X108479500Y-99972527D01*
X108479500Y-102195500D01*
X108460593Y-102253691D01*
X108411093Y-102289655D01*
X108380500Y-102294500D01*
X107934500Y-102294500D01*
X107876309Y-102275593D01*
X107840345Y-102226093D01*
X107835500Y-102195500D01*
X107835500Y-96915943D01*
X114554500Y-96915943D01*
X114554500Y-97074057D01*
X114595423Y-97226784D01*
X114674480Y-97363716D01*
X114786284Y-97475520D01*
X114923216Y-97554577D01*
X115075943Y-97595500D01*
X115075945Y-97595500D01*
X115234055Y-97595500D01*
X115234057Y-97595500D01*
X115386784Y-97554577D01*
X115523716Y-97475520D01*
X115635520Y-97363716D01*
X115635523Y-97363711D01*
X115638960Y-97359233D01*
X115689384Y-97324577D01*
X115717502Y-97320500D01*
X137452498Y-97320500D01*
X137510689Y-97339407D01*
X137531040Y-97359233D01*
X137534476Y-97363711D01*
X137534478Y-97363713D01*
X137534480Y-97363716D01*
X137646284Y-97475520D01*
X137783216Y-97554577D01*
X137935943Y-97595500D01*
X137935945Y-97595500D01*
X138094055Y-97595500D01*
X138094057Y-97595500D01*
X138246784Y-97554577D01*
X138383716Y-97475520D01*
X138495520Y-97363716D01*
X138574577Y-97226784D01*
X138615500Y-97074057D01*
X138615500Y-96915943D01*
X138574577Y-96763216D01*
X138495520Y-96626284D01*
X138383716Y-96514480D01*
X138246784Y-96435423D01*
X138094057Y-96394500D01*
X137935943Y-96394500D01*
X137783216Y-96435423D01*
X137646284Y-96514480D01*
X137534476Y-96626288D01*
X137531040Y-96630767D01*
X137480616Y-96665423D01*
X137452498Y-96669500D01*
X115717502Y-96669500D01*
X115659311Y-96650593D01*
X115638960Y-96630767D01*
X115635523Y-96626288D01*
X115635521Y-96626286D01*
X115635520Y-96626284D01*
X115523716Y-96514480D01*
X115386784Y-96435423D01*
X115234057Y-96394500D01*
X115075943Y-96394500D01*
X114923216Y-96435423D01*
X114786284Y-96514480D01*
X114674480Y-96626284D01*
X114595423Y-96763216D01*
X114554500Y-96915943D01*
X107835500Y-96915943D01*
X107835500Y-69790944D01*
X111456500Y-69790944D01*
X111456500Y-69949058D01*
X111497423Y-70101785D01*
X111576480Y-70238717D01*
X111688284Y-70350521D01*
X111825216Y-70429578D01*
X111977943Y-70470501D01*
X111977945Y-70470501D01*
X112136055Y-70470501D01*
X112136057Y-70470501D01*
X112288784Y-70429578D01*
X112425716Y-70350521D01*
X112537520Y-70238717D01*
X112616577Y-70101785D01*
X112657500Y-69949058D01*
X112657500Y-69790944D01*
X112616577Y-69638217D01*
X112537520Y-69501285D01*
X112425716Y-69389481D01*
X112288784Y-69310424D01*
X112136057Y-69269501D01*
X111977943Y-69269501D01*
X111825216Y-69310424D01*
X111688284Y-69389481D01*
X111576480Y-69501285D01*
X111497423Y-69638217D01*
X111456500Y-69790944D01*
X107835500Y-69790944D01*
X107835500Y-63845143D01*
X126212500Y-63845143D01*
X126212500Y-64003257D01*
X126253423Y-64155984D01*
X126332480Y-64292916D01*
X126444284Y-64404720D01*
X126581216Y-64483777D01*
X126733943Y-64524700D01*
X126733945Y-64524700D01*
X126892055Y-64524700D01*
X126892057Y-64524700D01*
X127044784Y-64483777D01*
X127181716Y-64404720D01*
X127293520Y-64292916D01*
X127372577Y-64155984D01*
X127413500Y-64003257D01*
X127413500Y-63845143D01*
X127372577Y-63692416D01*
X127293520Y-63555484D01*
X127181716Y-63443680D01*
X127044784Y-63364623D01*
X126892057Y-63323700D01*
X126733943Y-63323700D01*
X126581216Y-63364623D01*
X126444284Y-63443680D01*
X126332480Y-63555484D01*
X126253423Y-63692416D01*
X126212500Y-63845143D01*
X107835500Y-63845143D01*
X107835500Y-60098368D01*
X109271500Y-60098368D01*
X109271500Y-60231631D01*
X109297498Y-60362327D01*
X109297498Y-60362329D01*
X109347480Y-60482995D01*
X109348494Y-60485443D01*
X109422528Y-60596243D01*
X109516757Y-60690472D01*
X109627557Y-60764506D01*
X109750672Y-60815502D01*
X109881371Y-60841500D01*
X109881372Y-60841500D01*
X110014628Y-60841500D01*
X110014629Y-60841500D01*
X110145328Y-60815502D01*
X110268443Y-60764506D01*
X110379243Y-60690472D01*
X110473472Y-60596243D01*
X110547506Y-60485443D01*
X110598502Y-60362328D01*
X110624500Y-60231629D01*
X110624500Y-60098371D01*
X110598502Y-59967672D01*
X110547506Y-59844557D01*
X110473472Y-59733757D01*
X110379243Y-59639528D01*
X110268443Y-59565494D01*
X110145328Y-59514498D01*
X110014631Y-59488500D01*
X110014629Y-59488500D01*
X109881371Y-59488500D01*
X109881368Y-59488500D01*
X109750672Y-59514498D01*
X109750670Y-59514498D01*
X109627558Y-59565493D01*
X109516758Y-59639527D01*
X109422527Y-59733758D01*
X109348493Y-59844558D01*
X109297498Y-59967670D01*
X109297498Y-59967672D01*
X109271500Y-60098368D01*
X107835500Y-60098368D01*
X107835500Y-59294500D01*
X107854407Y-59236309D01*
X107903907Y-59200345D01*
X107934500Y-59195500D01*
X133055500Y-59195500D01*
X133113691Y-59214407D01*
G37*
%TD.AperFunction*%
M02*
