M48
; DRILL file {KiCad 9.0.0} date 2025-03-27T21:26:58+0000
; FORMAT={-:-/ absolute / metric / decimal}
; #@! TF.CreationDate,2025-03-27T21:26:58+00:00
; #@! TF.GenerationSoftware,Kicad,Pcbnew,9.0.0
; #@! TF.FileFunction,MixedPlating,1,4
FMAT,2
METRIC
; #@! TA.AperFunction,Plated,PTH,ViaDrill
T1C0.400
; #@! TA.AperFunction,Plated,PTH,ComponentDrill
T2C0.800
; #@! TA.AperFunction,Plated,PTH,ComponentDrill
T3C1.000
; #@! TA.AperFunction,NonPlated,NPTH,ComponentDrill
T4C1.152
%
G90
G05
T1
X109.313Y-73.246
X110.454Y-81.021
X111.091Y-76.294
X111.345Y-98.265
X112.057Y-69.87
X112.615Y-90.645
X113.303Y-68.293
X113.732Y-80.993
X113.885Y-95.725
X115.155Y-96.995
X115.256Y-75.913
X115.891Y-68.42
X115.98Y-77.564
X116.425Y-84.295
X116.425Y-94.455
X116.771Y-69.892
X117.842Y-80.866
X117.923Y-68.928
X118.965Y-93.185
X119.828Y-74.389
X120.082Y-78.453
X120.235Y-90.645
X120.463Y-72.992
X120.971Y-80.866
X121.479Y-66.642
X121.759Y-72.865
X122.775Y-91.915
X124.273Y-69.69
X124.273Y-71.341
X124.4Y-80.866
X125.035Y-76.929
X126.305Y-76.167
X126.813Y-63.924
X128.035Y-62.705
X128.21Y-80.866
X129.734Y-65.88
X130.395Y-95.725
X130.877Y-76.929
X131.893Y-78.453
X132.782Y-80.866
X132.935Y-93.185
X133.29Y-73.119
X134.687Y-62.451
X136.211Y-80.866
X137.989Y-68.039
X137.989Y-69.69
X138.015Y-96.995
X138.015Y-98.646
X138.37Y-76.421
X140.021Y-80.866
X142.079Y-76.421
X142.815Y-82.898
X143.45Y-70.452
X144.339Y-80.866
X147.576Y-76.012
X147.638Y-77.31
X147.641Y-73.054
X147.649Y-80.975
X148.022Y-63.34
X148.022Y-66.642
X148.022Y-69.817
X148.567Y-83.025
X148.595Y-84.168
T2
X110.075Y-85.565
X110.075Y-100.805
X112.615Y-85.565
X112.615Y-100.805
X115.155Y-85.565
X115.155Y-100.805
X117.695Y-85.565
X117.695Y-100.805
X120.235Y-85.565
X120.235Y-100.805
X122.775Y-85.565
X122.775Y-100.805
X125.315Y-85.565
X125.315Y-100.805
X127.855Y-85.565
X127.855Y-100.805
X130.395Y-85.565
X130.395Y-100.805
X132.935Y-85.565
X132.935Y-100.805
X135.475Y-85.565
X135.475Y-100.805
X138.015Y-85.565
X138.015Y-100.805
X140.555Y-85.565
X140.555Y-100.805
X143.095Y-85.565
X143.095Y-100.805
T3
X108.805Y-103.345
X111.345Y-103.345
X113.885Y-103.345
X116.425Y-103.345
X118.965Y-103.345
X121.505Y-103.345
X124.045Y-103.345
X126.585Y-103.345
X129.125Y-103.345
X131.665Y-103.345
X134.205Y-60.165
X134.205Y-103.345
X136.745Y-60.165
X136.745Y-103.345
X139.285Y-60.165
X139.285Y-103.345
X141.825Y-60.165
X141.825Y-103.345
X144.365Y-60.165
X144.365Y-103.345
X146.905Y-103.345
X149.445Y-103.345
T4
X109.948Y-60.165
X145.508Y-101.567
M30
