%TF.GenerationSoftware,KiCad,Pcbnew,9.0.0*%
%TF.CreationDate,2025-03-27T21:27:04+00:00*%
%TF.ProjectId,MiniEconetModule,4d696e69-4563-46f6-9e65-744d6f64756c,02b*%
%TF.SameCoordinates,Original*%
%TF.FileFunction,Soldermask,Bot*%
%TF.FilePolarity,Negative*%
%FSLAX46Y46*%
G04 Gerber Fmt 4.6, Leading zero omitted, Abs format (unit mm)*
G04 Created by KiCad (PCBNEW 9.0.0) date 2025-03-27 21:27:04*
%MOMM*%
%LPD*%
G01*
G04 APERTURE LIST*
G04 Aperture macros list*
%AMRoundRect*
0 Rectangle with rounded corners*
0 $1 Rounding radius*
0 $2 $3 $4 $5 $6 $7 $8 $9 X,Y pos of 4 corners*
0 Add a 4 corners polygon primitive as box body*
4,1,4,$2,$3,$4,$5,$6,$7,$8,$9,$2,$3,0*
0 Add four circle primitives for the rounded corners*
1,1,$1+$1,$2,$3*
1,1,$1+$1,$4,$5*
1,1,$1+$1,$6,$7*
1,1,$1+$1,$8,$9*
0 Add four rect primitives between the rounded corners*
20,1,$1+$1,$2,$3,$4,$5,0*
20,1,$1+$1,$4,$5,$6,$7,0*
20,1,$1+$1,$6,$7,$8,$9,0*
20,1,$1+$1,$8,$9,$2,$3,0*%
G04 Aperture macros list end*
%ADD10RoundRect,0.250000X0.550000X-0.550000X0.550000X0.550000X-0.550000X0.550000X-0.550000X-0.550000X0*%
%ADD11C,1.600000*%
%ADD12C,1.152000*%
%ADD13R,1.700000X1.700000*%
%ADD14O,1.700000X1.700000*%
G04 APERTURE END LIST*
D10*
X110075000Y-100805000D03*
D11*
X112615000Y-100805000D03*
X115155000Y-100805000D03*
X117695000Y-100805000D03*
X120235000Y-100805000D03*
X122775000Y-100805000D03*
X125315000Y-100805000D03*
X127855000Y-100805000D03*
X130395000Y-100805000D03*
X132935000Y-100805000D03*
X135475000Y-100805000D03*
X138015000Y-100805000D03*
X140555000Y-100805000D03*
X143095000Y-100805000D03*
X143095000Y-85565000D03*
X140555000Y-85565000D03*
X138015000Y-85565000D03*
X135475000Y-85565000D03*
X132935000Y-85565000D03*
X130395000Y-85565000D03*
X127855000Y-85565000D03*
X125315000Y-85565000D03*
X122775000Y-85565000D03*
X120235000Y-85565000D03*
X117695000Y-85565000D03*
X115155000Y-85565000D03*
X112615000Y-85565000D03*
X110075000Y-85565000D03*
D12*
X145508000Y-101567000D03*
X109948000Y-60165000D03*
D13*
X108805000Y-103345000D03*
D14*
X111345000Y-103345000D03*
X113885000Y-103345000D03*
X116425000Y-103345000D03*
X118965000Y-103345000D03*
X121505000Y-103345000D03*
X124045000Y-103345000D03*
X126585000Y-103345000D03*
X129125000Y-103345000D03*
X131665000Y-103345000D03*
X134205000Y-103345000D03*
X136745000Y-103345000D03*
X139285000Y-103345000D03*
X141825000Y-103345000D03*
X144365000Y-103345000D03*
X146905000Y-103345000D03*
X149445000Y-103345000D03*
D13*
X134205000Y-60165000D03*
D14*
X136745000Y-60165000D03*
X139285000Y-60165000D03*
X141825000Y-60165000D03*
X144365000Y-60165000D03*
M02*
